<?xml version="1.0" encoding="UTF-8"?><svg id="Layer_1" xmlns="http://www.w3.org/2000/svg" width="520" height="520" viewBox="0 0 520 520"><defs><style>.cls-1{opacity:.35;}.cls-1,.cls-2,.cls-3,.cls-4{fill:#231f20;stroke-width:0px;}.cls-2{opacity:.45;}.cls-3{opacity:.25;}</style></defs><path class="cls-4" d="M451.63,373.25c-.99.08-1.97.16-2.96.24-.36.03-.72.1-1.08.13-1.28.08-2.56.14-3.85.07-.57,0-1.14-.01-1.7-.02-.73,0-1.45-.18-2.16-.34-.22-.05-.19-.05,0-.09.19-.03.55-.18.96-.28.73-.23,1.44-.27,2.15-.35.71-.07,1.43-.15,2.15-.18.87.01,1.77-.19,2.65-.3l2.94-.39,1.82-.24c.92-.13,1.85-.22,2.76-.37.7-.14,1.41-.27,2.12-.41.16-.03.31-.07.47-.08.59-.05.79.06.93.5.03.1.07.2.09.3.07.34-.16.64-.56.78-1.21.41-2.47.65-3.78.76-.98.1-1.96.2-2.94.3v-.04Z"/><path class="cls-4" d="M132.85,369.91l-3.85-.35c-.47-.04-.94-.03-1.4-.09-1.65-.19-3.29-.4-4.92-.62-.72-.13-1.45-.23-2.17-.32l-1.38-.2c-.46-.1-.91-.24-1.37-.36-.28-.08-.24-.09,0-.14.25-.04.72-.22,1.26-.32,1.91-.12,3.8-.34,5.68.03,1.13.17,2.32.11,3.48.15l3.83.12,2.36.05c1.19.01,2.39.04,3.57-.04.92-.07,1.81-.27,2.71-.43.2-.03.39-.09.59-.12.74-.08.99.1,1.19.66.05.13.1.25.14.38.1.43-.17.82-.72,1.04-1.61.54-3.36.64-5.1.68-1.3.02-2.6-.01-3.9-.06v-.05Z"/><path class="cls-2" d="M122.29,96.45c.37,10.21-8.05,18.8-18.82,19.2-10.77.39-19.8-7.56-20.17-17.77-.87-23.77,38.12-25.31,38.99-1.43Z"/><path class="cls-4" d="M121.11,168.21s9.61-2.51,11.27-7.55c.22-.66-14.64,4.45-14.64,4.8s3.36,2.75,3.36,2.75Z"/><path class="cls-1" d="M435.8,317.07c0-3.71-61.74,0-61.74,0l-31.64,82.04-37.51.08-6.44,4.59s91.31-.92,106.32-2.64c5.64-.65,31-77.81,31-84.07ZM403.13,362.49c-2.44,1.32-4.7.37-6.02,0-1.32-.38-1.51-2.04-1.51-2.04,0,0,.91-7.19,4.41-8.22,3.5-1.04,5.04.56,5.59,1.65.55,1.08-.02,7.29-2.47,8.61Z"/><path class="cls-4" d="M401.36,351.47c-1.35.76-4.15,5.31-1.85,7.16,2.26,1.82,4.91.07,5.9-.1.92-.16-1.77,4.46-3.5,5.28-1.08.51-7.19.33-7.41-1.86-.38-3.84,2.07-7.8,2.07-7.8l4.8-2.67Z"/><path class="cls-4" d="M425.14,388.6c1.01-2.01,1.98-4.05,2.88-6.12.33-.75.6-1.54.94-2.29,1.17-2.66,2.27-5.36,3.29-8.1.45-1.21.86-2.45,1.25-3.68.25-.79.53-1.57.8-2.35.27-.78.58-1.55.99-2.29.25-.46.27-.38.31.09.03.32.06.65.08.97.01.4-.04.84-.14,1.31-.19.83-.37,1.66-.58,2.47l-.75,2.43c-.52,1.61-1.09,3.22-1.72,4.8-.76,1.9-1.38,3.94-2.13,5.89-.85,2.14-1.77,4.25-2.73,6.34-.6,1.29-1.2,2.55-1.85,3.84-1,1.93-2.17,3.76-3.43,5.53-.97,1.37-1.98,2.72-3.31,3.86-.29.25-.57.51-.92.72-1.25.84-1.93.58-2.31.25-.09-.08-.19-.13-.25-.19-.16-.18.25-.72.89-1.32,1.03-.74,1.97-1.74,2.84-2.85.86-1.12,1.75-2.28,2.55-3.52.6-.92,1.18-1.86,1.72-2.83.54-.95,1.02-1.96,1.53-2.99l.05.02Z"/><path class="cls-4" d="M329.47,314.49s-1.44,4.37-.59,6.4c1.25,3.01,6.92,8.66,6.92,8.66l-6.32-15.05Z"/><path class="cls-4" d="M260.37,375.82c-.41-1.08-.88-2.15-1.53-3.01-.25-.33-.55-.6-.84-.9-1-1.08-2.26-1.96-3.57-2.77-.58-.36-1.21-.66-1.83-.95l-1.21-.53c-.4-.2-.78-.44-1.16-.68-.24-.15-.16-.24.11-.3.27-.05.77-.14,1.29-.05,1.74.55,3.52,1.16,5.06,2.3.91.67,1.94,1.3,2.78,2.15.95.9,1.67,2.09,2.22,3.21.34.71.66,1.42.91,2.14.41,1.1.73,2.22,1.09,3.31.29.85.59,1.68.84,2.53.05.19.12.37.16.56.15.72.07.98-.29,1.2-.08.05-.16.11-.25.15-.29.12-.6-.12-.81-.6-.66-1.42-1.29-2.9-1.78-4.43-.38-1.13-.82-2.23-1.24-3.32l.04-.02Z"/><path class="cls-4" d="M266.61,380.6c.23,1.04.45,2.09.64,3.13.08.38.2.75.26,1.13.24,1.35.32,2.72.41,4.08.05.6.06,1.21.11,1.8.05.76.02,1.54,0,2.3-.01.47-.29-.11-.58-.95-.24-.74-.48-1.47-.72-2.21-.24-.73-.35-1.48-.48-2.23-.15-.9-.43-1.81-.69-2.71-.26-1-.53-1.99-.83-2.98-.18-.61-.37-1.22-.58-1.82-.31-.92-.6-1.85-1-2.72-.31-.68-.76-1.29-1.16-1.92-.09-.14-.2-.27-.27-.41-.3-.53-.19-.79.34-1.17.12-.09.24-.18.37-.26.43-.26.91-.2,1.25.15.94,1.06,1.53,2.36,2.03,3.71.38,1,.68,2.03.95,3.07l-.05.02Z"/><path class="cls-4" d="M218.24,359.05s3.95-1.44,6.35-.6c3.4,1.2,11.29,3.99,11.29,3.99l-13.73-1.48-3.92-1.9Z"/><path class="cls-4" d="M268.05,295.98c-.24.26-.48.51-.69.78-.08.1-.1.22-.18.31-.14.15-.28.31-.43.46-.15.14-.3.27-.4.42-.09.13-.12.28-.13.4-.07.17-.14.33-.18.6-.01.09-.07.13-.22.15-.14.02-.45.03-.66-.12-.17-.14-.32-.31-.44-.49-.1-.19-.09-.38-.1-.56,0-.36.09-.67.25-.93.22-.3.26-.62.38-.89.15-.3.32-.58.48-.87.1-.18.21-.36.31-.53.15-.27.33-.53.41-.83.06-.23-.02-.52-.04-.78,0-.06-.03-.12-.02-.18.03-.2.21-.19.87.04l.45.16c.5.19.88.43.97.62.26.56.12.99-.07,1.39-.15.3-.33.58-.52.86l-.06-.02Z"/><path class="cls-3" d="M263.11,274.77s12.08,12.3,17.79,8.72c5.72-3.58,1.24-17.6.62-19.22-1.56-4.05-5.26-10.69-5.26-10.69l-7,14.01-6.16,7.18Z"/><path class="cls-4" d="M280.9,280.39c.19-.84.35-1.72.45-2.61.03-.32,0-.65.04-.97.1-1.15.28-2.32.35-3.49.02-.52.03-1.04.05-1.56,0-.66.03-1.33.08-2,.02-.21.04-.18.13-.02.08.17.28.47.44.83.26.65.51,1.31.71,1.98.16.67.21,1.36.21,2.05.01.83.11,1.68.14,2.53,0,.93-.04,1.87-.12,2.81-.06.58-.12,1.16-.22,1.74-.15.88-.38,1.76-.66,2.66-.24.68-.39,1.54-1.28,2.24-.18.16-.4.27-.65.35-.94.19-1.17-.21-1.18-.81,0-.15,0-.29,0-.43.06-.47.37-.83.47-1.07.09-.15.02-.29.01-.35,0-.03,0-.1,0-.12.01-.07.03-.11.05-.18.1-.28.26-.71.38-1.21.2-.72.35-1.56.52-2.41h.06Z"/><path class="cls-4" d="M285.12,272.81c.06,2.63-.06,5.27-.48,7.93-.17.97-.24,1.96-.59,2.96-.1.29-.22.58-.35.88l-.21.45-.34.59c-.12.19-.27.36-.4.54-.15.16-.31.32-.48.45l-.27.19c-.1.05-.21.08-.31.11-.19.09-.41.11-.62.17-.47.01-.91.03-1.38-.05-.41-.04-.66-.11-.98-.19-.61-.14-1.16-.35-1.71-.56-1.09-.43-2.09-.95-3.08-1.48-1.29-.74-2.54-1.53-3.74-2.36-.78-.53-1.52-1.1-2.21-1.76-.66-.68-1.37-1.31-1.8-2.19-.3-.51-.21-.47.25-.24.49.21,1.39.52,2.27,1.02,1.6.86,3.18,1.73,4.82,2.45,1.64.69,3.21,1.55,4.82,2.07.37.14.73.22,1.1.29.46.05.43.08.61.07.12.01.23-.03.3-.13.08-.11.11-.14.18-.36.18-.52.3-1.15.45-1.77.5-2.28.68-4.76.67-7.22,0-1.52-.08-3.04-.25-4.56-.26-2.3-.62-4.61-1.26-6.82-.49-1.72-1.31-3.3-2.04-4.9-.16-.35-.36-.68-.49-1.05-.49-1.35-.47-1.86.21-2.51.15-.15.29-.31.45-.43.54-.4,1.29-.07,2,.85,2.08,2.74,3.16,6.19,3.93,9.66.56,2.59.86,5.24,1,7.89h-.09Z"/><path class="cls-2" d="M224.78,230.26s8.44-14.93,8.44-14.93c2.32,5.05,4.92,9.6,6.34,14.93h-14.78Z"/><path class="cls-4" d="M306.37,221.3c.72-1.63,1.41-3.27,2-4.96.23-.61.38-1.24.6-1.86.74-2.17,1.43-4.37,1.97-6.61.23-1,.47-1.99.7-2.98.27-1.28.54-2.51.82-3.84.09-.4.12-.34.16.01.03.35.1,1,.09,1.77-.05,1.35-.12,2.7-.27,4.04-.19,1.34-.52,2.65-.89,3.96-.44,1.56-.77,3.22-1.22,4.82-.5,1.75-1.07,3.49-1.68,5.21-.38,1.06-.77,2.11-1.2,3.15-.63,1.58-1.35,3.13-2,4.68-.52,1.2-.91,2.44-1.41,3.64-.11.26-.21.53-.35.78-.52.94-.87,1.14-1.37,1.13-.12,0-.24,0-.35-.01-.35-.07-.42-.6-.27-1.38.12-.58.31-1.13.47-1.7.2-.55.43-1.09.65-1.64.45-1.1.93-2.19,1.41-3.29l1.06-2.46,1.03-2.48h.05Z"/><path class="cls-4" d="M310.87,266.46c.5-.83,1.16-1.54,1.85-2.14.27-.2.47-.47.76-.63,1.03-.55,2.07-.9,3.08-1.23.45-.14.89-.31,1.33-.44.55-.2,1.13-.35,1.71-.47.18-.04.17,0,.05.11-.12.11-.33.35-.6.56-.99.71-1.88,1.52-2.91,1.99-.3.15-.58.36-.84.58-.24.23-.48.48-.73.69-.58.44-1.04.96-1.45,1.55-.24.36-.44.76-.61,1.18-.21.65-.42,1.33-.44,2.04-.05.55.12,1.1.19,1.64.02.12.07.24.08.36-.05.45-.3.61-.78.74-.11.03-.21.06-.31.08-.17.03-.32,0-.49-.07-.17-.08-.36-.21-.47-.39-.4-.52-.42-1.09-.52-1.67-.06-.59-.06-1.19.08-1.81.14-.91.52-1.83.96-2.69l.05.02Z"/><path class="cls-4" d="M328.06,259.66c-1.06.11-2.12.23-3.17.38-.38.05-.75.19-1.13.24-1.35.21-2.73.32-4.08.57-.6.1-1.18.31-1.76.45-.37.1-.74.22-1.12.3-.19.05-.38.09-.57.12-.19.05-.43-.05-.64-.07-.28-.07-.28-.16-.17-.48.08-.24.16-.48.22-.67.11-.24.27-.41.47-.53,1.41-.89,2.97-1.34,4.6-1.54.97-.13,1.93-.47,2.9-.67,1.07-.21,2.15-.38,3.23-.55l1.99-.3c1-.16,2.01-.27,3-.49.76-.17,1.48-.49,2.22-.75.16-.06.32-.14.49-.16.63-.08.86.09,1.1.74.05.15.12.3.16.44.14.5-.05.98-.47,1.27-.62.47-1.3.65-1.98.85-.69.19-1.39.32-2.1.44-1.05.18-2.12.29-3.18.46v-.06Z"/><path class="cls-3" d="M261.72,256.62c-4.94,15.52-18.72,16.19-18.93,15.05,0,0,2.26,11.9,7.33,10.89,5.06-1.01,15.42-9.16,17.49-12.24,2.07-3.08,7.97-14.16,7.37-13.7s-13.25,0-13.25,0Z"/><path class="cls-4" d="M271.24,264.56c-.88,1.47-1.79,2.91-2.82,4.26-.37.5-.68,1.04-1.11,1.49-1.44,1.65-3.03,3.15-4.72,4.49-.71.64-1.54,1.15-2.3,1.71-.52.32-1.02.66-1.55.95-.54.27-1.11.51-1.66.75-.35.14-.33.08-.11-.18.22-.25.59-.75,1.1-1.21.44-.43.87-.85,1.31-1.24.44-.4.84-.85,1.26-1.26.86-.8,1.73-1.59,2.61-2.41,1.06-.96,1.87-2.23,2.72-3.41.92-1.31,1.82-2.65,2.59-4.08.5-.86.92-1.76,1.35-2.67.29-.7.6-1.39.88-2.1.25-.71.52-1.42.71-2.15.3-1.13.42-2.29.59-3.43.04-.25.04-.5.09-.76.08-.47.17-.76.35-.95.2-.18.44-.27.8-.3.16-.02.32-.05.47-.05.26,0,.47.12.64.33.17.21.31.53.3.9.05,1.11-.09,2.23-.27,3.35-.25,1.11-.59,2.21-1.01,3.29-.59,1.61-1.38,3.16-2.17,4.69l-.06-.02Z"/><path class="cls-4" d="M246.2,279.72c.16.32.34.57.52.8.18.2.33.33.63.45.21.08.46.08.72.12.93.17,1.99.07,3.04-.08.47-.06.93-.2,1.37-.35.57-.2,1.13-.42,1.74-.57.19-.04.24.11.18.35-.07.23-.24.59-.55.8-.55.37-1.12.7-1.72.97-.6.28-1.24.49-1.93.52-.81.05-1.64.29-2.56.22-.49-.03-1.02-.14-1.54-.4-.52-.26-.92-.62-1.24-.99-.4-.45-.72-.94-.99-1.43-.42-.74-.72-1.53-1.06-2.28-.26-.59-.63-1.14-.89-1.77-.06-.14-.13-.28-.18-.43-.15-.57.02-.82.7-.95.15-.03.31-.06.46-.08.53-.03.96.12,1.13.38.53.79.88,1.75,1.26,2.69.28.7.6,1.39.95,1.98l-.04.04Z"/><path class="cls-4" d="M206.43,280.55c-.57.65-2.78,2.69-3.6,2.96-5.55,1.77-25.64,6-31.89-4.5-5.65-9.49-1.84-23.25-2.26-27.11-1.35-12.5-16.74-11.18-10.4-37.2,4.46-18.31,34.68-35.16,34.68-35.16,0,0,7.59-5.13,9.95-9.03s8.8-19.36,8.8-19.36c0,0,7.97-15.46,13.54-19.41,5.57-3.95,18.27-8.88,22.77-9.69s19.25,1.64,21.65,2.88,13.05,10.87,13.05,10.87l4.03,7.03s9.97-5.7,19.11-2.72,16.24,7.46,18.89,11.28c2.65,3.82,6.43,8.91,6.92,15.46.48,6.56-.21,13.59-.9,15.75-.69,2.16-7,11.45-7,11.45,0,0-13.78-13.82-15.88-13.4s-3.13,3.77-3.13,3.77c0,0-8.76-5.13-9.86-7.45s-1.75-10.11-1.75-10.11c0,0-8.44,4.47-12.16,3.58-3.72-.89-10.51-6.41-10.51-6.41,0,0-3.11,7.92-6.83,11.03-3.72,3.11-13.53,8.39-13.53,8.39,0,0,.4,10.3,0,13.12-.4,2.82-1.8,5.22-4.26,4.81-2.47-.41-5.2-4.45-7.85-7.31-2.65-2.86-4.98-4.27-7.2-4.05s-8.84,2.8-9.44,6.52c-.6,3.71-1.55,7.67.76,10.14s11.1,6.8,11.1,6.8l-11.08,17.5s13.49.47,16,.49,4.65,3.87,4.65,3.87l5.1,5.85-.43,3.76-23.88,16.06-17.15,19.56Z"/><path class="cls-4" d="M289.02,263.19s19.69-4.93,21.47-17.07c1.2-8.18-5.34-13.6-8.64-14.93-3.29-1.32-6.28,7.26-9.12,9.79-2.85,2.53-14.5,8.88-14.5,8.88l-1.98,5.41,12.76,7.91Z"/><path class="cls-4" d="M128.49,168.53c1.49.11,3.02-.07,4.51-.46.54-.16,1.05-.39,1.56-.61.58-.23.59-.21.81-.29.08-.04.18-.07.27-.12.09-.04.23-.11.2-.21-.05-.17-.19-.29-.34-.45-.1-.09-.12-.12-.29-.27l-.63-.54c-.75-.66-1.52-1.34-2.2-2.12-.44-.49-.85-1.05-1.1-1.69-.12-.32-.26-.64-.28-.99-.02-.35,0-.7.03-1.03.07-.42.14-.35.42-.08.13.14.36.32.62.49.14.09.3.17.42.27.12.1.22.21.32.32.74.76,1.42,1.53,2.34,2.22.45.35.91.7,1.39,1.08l.2.16c.13.08.24.17.36.26.24.17.47.35.69.53.45.36.77.76.95,1.14.11.23.17.45.21.69.03.23.02.56-.11.77l-.44.63-.69.58c-.45.37-1.07.7-1.53.98-.39.17-.77.37-1.16.51-1.73.63-3.54.97-5.36,1.03-1.12.02-2.24-.06-3.34-.25-1.68-.26-3.24-.95-4.76-1.64-.56-.32-1.13-.61-1.72-.89-.55-.33-1.09-.67-1.64-1.03-.25-.15-.47-.32-.68-.51-.76-.74-.83-1.15-.45-1.78.08-.14.15-.28.23-.4.27-.36.97-.45,1.59-.12,1.78,1.05,3.41,2.19,5.28,2.87,1.38.49,2.82.84,4.31.88v.07Z"/><path class="cls-4" d="M423.64,399.19s8.86.75,9.43,2.26-16.75,1.64-16.75,1.64l7.32-3.9Z"/><path class="cls-4" d="M309.44,257.54c-1.03,1.39-2.17,2.68-3.41,3.89-.46.43-.85.92-1.35,1.32-.87.7-1.78,1.35-2.76,1.9-.99.53-2.02.99-3.1,1.31-.96.27-1.92.57-2.92.65-.64.04-1.29.06-1.92-.04-.32-.04-.62-.19-.92-.3-.3-.1-.58-.29-.83-.51-.31-.28-.25-.26.12-.43.38-.19,1.02-.6,1.61-.78,2.07-.32,3.92-.87,5.93-1.85,1.21-.55,2.24-1.55,3.23-2.52,1.1-1.06,2.14-2.23,3.07-3.49.58-.77,1.11-1.58,1.6-2.41.72-1.27,1.41-2.59,1.84-3.97.33-1.08.38-2.2.41-3.27,0-.24-.02-.47-.01-.7.01-.85.3-1.08,1.18-1.27.2-.04.4-.1.6-.13.67-.1,1.25.31,1.45,1.12.42,2.38-.22,4.78-1.12,6.96-.7,1.62-1.62,3.12-2.61,4.56l-.07-.04Z"/><path class="cls-4" d="M264.81,274.82c-2.43,2.14-4.99,4.09-7.72,5.82-1.02.6-1.95,1.32-3.03,1.84-1.09.58-2.24,1.08-3.43,1.52-.62.2-1.18.44-1.87.57l-.99.22-.58.03c-.24,0-.48.04-.71.01-.65,0-1.25-.34-1.71-.79-.23-.23-.44-.48-.63-.75-.14-.21-.27-.42-.37-.63-.44-.83-.75-1.64-1.01-2.46-.55-1.79-.95-3.57-1.25-5.36-.19-1.15-.29-2.31-.31-3.48,0-.58,0-1.17.09-1.75.09-.58.23-1.16.37-1.73.22-.71.31-.58.53.03.11.31.28.73.5,1.23.11.25.24.52.34.8.09.28.16.58.22.88.2,1.09.5,2.17.78,3.24.25,1.07.54,2.14.86,3.17.34,1.03.68,2.05,1.06,2.99.19.46.4.91.61,1.24.02.1.08.26.21.32,0,.01.02-.02.03.03.06-.03.06,0,.16,0,.12-.01.21.03.37-.02l.87-.19c.59-.17,1.2-.41,1.8-.67.6-.3,1.21-.56,1.79-.9.59-.33,1.18-.67,1.77-1,2.62-1.52,5.11-3.33,7.44-5.32l1.08-.92,1.03-.97c.69-.65,1.38-1.29,2-2.01l1.46-1.58,1.36-1.66c.94-1.09,1.69-2.31,2.49-3.48.58-.94,1.04-1.94,1.53-2.91.47-.98.8-2.02,1.23-3.01.18-.44.33-.88.48-1.34.6-1.67,1.02-2.1,2.04-2.15.23-.01.47-.05.69-.03.74.07,1.03.97.71,2.35-.91,4.1-3.03,8.07-5.64,11.61-1.99,2.6-4.19,5.05-6.59,7.26l-.06-.06Z"/><path class="cls-4" d="M291.56,262.62c1.93,1.58,3.84,3.19,5.69,4.89.68.61,1.42,1.16,2.05,1.82,2.26,2.32,4.37,4.78,6.28,7.37.86,1.13,1.73,2.28,2.53,3.44.5.75,1.04,1.49,1.52,2.26.43.8.79,1.65,1.13,2.49.2.54-.11.62-.7.43-.58-.2-1.52-.63-2.22-1.38-1.13-1.38-2.25-2.75-3.38-4.13-.52-.72-1.08-1.4-1.63-2.11-.53-.71-1.09-1.41-1.65-2.11-1.31-1.72-3.09-3.11-4.71-4.6-1.81-1.62-3.65-3.23-5.58-4.74-1.17-.95-2.38-1.87-3.59-2.77-1.85-1.36-3.7-2.75-5.62-4.01-1.49-.97-3.07-1.76-4.6-2.66-.34-.2-.68-.37-1.01-.58-1.22-.8-1.46-1.26-1.18-2.18.06-.21.11-.43.2-.63.3-.66,1.12-.79,2.11-.36,2.92,1.29,5.67,3.1,8.4,5.02,2.03,1.42,4.02,2.94,6.02,4.46l-.05.07Z"/><path class="cls-4" d="M203.42,286.91c-5.32,6.58-10.31,13.45-15.01,20.53l-2.52,3.91c-.81,1.32-1.63,2.64-2.47,3.94-5.88,9.22-11.36,18.72-16.38,28.46-2.24,4.32-4.35,8.73-6.3,13.14-1.24,2.84-2.47,5.69-3.71,8.54l-1.82,4.29-1.87,4.26c-.77,1.77-.87,1.48-.68-.19.08-.84.26-2.02.49-3.44.28-1.4.7-3.03,1.3-4.73,2.07-6.05,4.53-11.94,7.19-17.76,1.33-2.9,2.7-5.8,4.16-8.65,1.48-2.84,3-5.67,4.58-8.47,3.79-6.69,7.56-13.75,11.7-20.45,4.55-7.36,9.48-14.5,14.7-21.41,3.26-4.22,6.56-8.41,10.07-12.43,5.28-6.12,10.97-11.92,16.92-17.32,4.63-4.19,9.26-8.26,14.42-11.77,1.1-.82,2.23-1.56,3.42-2.27,1.1-.66,2.02-1.21,2.82-1.62.82-.37,1.49-.64,2.07-.82,1.15-.36,1.93-.32,2.67-.04.33.12.73.2.96.36.76.51-.68,2.22-3.78,4.03-4.48,2.95-8.92,6.15-13.26,9.65-4.28,3.57-8.54,7.3-12.58,11.31-6.02,5.93-11.7,12.32-17,19.01l-.09-.05Z"/><path class="cls-4" d="M244.32,238.44c.04.66.89,11.01,10.11,16.38s16.6,2.66,19.55,1.41c4.24-1.79,9.19-8.25,9-7.98s-8.41,2.53-13.31,2.15-13.55-4.45-15.62-5.19-9.73-6.76-9.73-6.76Z"/><path class="cls-4" d="M319.8,143.59c1.99,1.6,3.61,3.34,5.2,5.19,1.54,1.88,2.9,3.9,4.06,6.02.41.79.85,1.55,1.21,2.36.4.79.73,1.61,1.03,2.44,1.05,2.93,1.68,5.99,1.91,9.06.23,3.07.1,6.15-.4,9.16-.45,2.67-1.05,5.33-2.04,7.84-.62,1.61-1.35,3.21-2.3,4.69-.47.75-1,1.46-1.64,2.09-.3.33-.64.63-.98.91-.15.16-.39.25-.59.35-.21.1-.4.22-.62.29-1.11.36-.91.26-.43-.55.41-.94.92-2.43,1.78-3.98,1.64-2.72,2.63-5.86,3.44-9.01.78-3.17,1.16-6.45,1.14-9.76-.01-1.98-.29-4-.77-5.98-.5-1.97-1.21-3.89-2.04-5.74-.9-2.04-2.03-3.97-3.34-5.78-1.31-1.81-2.77-3.53-4.42-5.06-1.98-1.9-4.23-3.45-6.74-4.61-3.77-1.77-7.98-2.73-12.14-2.8-3.24-.04-6.4.6-9.34,1.66-.64.26-1.25.54-1.9.78-2.31,1.06-3.08,1.29-4.08.76-.22-.12-.49-.21-.67-.35-.3-.23-.29-.61.01-1.11.32-.47.89-1.17,1.83-1.67,5.48-3.32,12.52-4.22,19.12-3.15,2.46.42,4.87,1.15,7.2,2.08,2.31.99,4.51,2.26,6.55,3.77l-.04.07Z"/><path class="cls-4" d="M308.6,183.12c-.55-.3-1.13-.58-1.43-.67l-.18-.05s-.03-.01-.03-.01c-.02-.15-.03-.27-.05-.37-.11-.45-.21-.29.19-.04.05.03.12.08.19.11.03.01,0,0,0,.01,0,0-.02.02-.03.05-.01.02-.02.06-.04.1,0,0-.02.08-.03.15l-.04.21c-.08.62-.1,1.28-.26,1.79-.15.52-.37.87-.65,1.17-.13.14-.34.31-.57.38-.2.07-.39.07-.6.09-.35,0-.73-.03-1.15-.18-.58-.22-1.16-.44-1.73-.72-.27-.13-.61-.31-.81-.42-.17-.1-.34-.2-.5-.31-1.5-1-3-2.11-4.34-3.44-1.32-1.33-2.54-2.88-3.25-4.68-.64-1.58-1.01-3.26-1.1-4.91-.08-1.06,0-2.11.19-3.13.08-.51.2-1.02.38-1.5.18-.49.42-.95.65-1.41.34-.56.42-.44.65.15.12.3.26.7.42,1.18.08.24.2.5.25.75.05.26.06.52.07.79,0,.95.13,1.88.18,2.76.05.89.24,1.73.46,2.55.53,1.6,1.27,3.11,2.41,4.57.66.88,1.56,1.63,2.52,2.3.48.33.98.67,1.51.99l1.24.74c.1.06.21.12.32.18l.3.15c.05.02.1.06.16.06.06,0,.09-.05.11-.1.07-.19.07-.41.12-.63l.05-.19c.04-.16.11-.39.19-.59.17-.42.48-.93,1-1.28.51-.36,1.12-.47,1.58-.45.47.01.86.1,1.22.21,1.02.34,1.72.76,2.5,1.17.76.42,1.5.85,2.24,1.29.56.33,1.11.68,1.66,1.04.56.36,1.1.77,1.61,1.14,1.04.77,2.07,1.55,3.09,2.34,1.59,1.22,3.21,2.37,4.73,3.69.33.3.68.56.99.88,1.14,1.2,1.22,1.84.87,2.59-.08.17-.15.36-.24.5-.33.47-1.15.31-2.12-.33-2.73-2.06-5.36-4.34-8.27-6.42l-1.62-1.16c-.49-.35-1.04-.7-1.6-1.05-1.12-.69-2.29-1.37-3.42-1.95l.03-.07Z"/><path class="cls-4" d="M300.58,234.67c-3.51,5.02-7.88,9.66-13.36,12.79-2,1.12-4.09,2.13-6.31,2.77-7.86,2.04-16.12,1.2-23.36-1.89-3.21-1.37-6.3-3.08-9.02-5.24-3.43-2.8-6.51-6.35-7.85-10.61-.26-1.39-.31-1.14.58-.32.86.85,2.49,2.24,4.1,3.95,2.84,3.07,6.12,5.63,9.77,7.63,3.66,1.98,7.67,3.33,11.83,4.13,4.98.87,10.49.35,15.21-1.53,5.26-2.08,9.77-5.94,13.4-10.48,2.26-2.79,4.19-5.86,5.9-9.05,2.57-4.85,4.7-10,6.26-15.25,1.23-4.08,1.99-8.2,2.67-12.35.13-.92.25-1.81.38-2.74.27-1.71.45-2.83.75-3.59.29-.77.66-1.18,1.14-1.5.21-.15.42-.35.6-.43.31-.13.54.17.76.84.24.68.33,1.71.22,3-.56,7.71-2.41,15.73-5.25,23.45-2.13,5.73-4.87,11.31-8.36,16.45l-.07-.04Z"/><path class="cls-4" d="M278.27,167.49c1.27.6,2.58,1.05,4,1.18.52.06,1.04-.02,1.57,0,1.87.12,3.86-.04,5.69-.69.82-.27,1.58-.7,2.28-1.18l.64-.5c.21-.17.38-.38.62-.52.44-.32.91-.64,1.37-1.01.3-.22.41-.11.45.3.02.21.04.5.04.86-.02.34-.1.73-.27,1.09-1.5,2.3-4.01,3.73-6.58,4.23-1.54.27-3.09.8-4.71.83-1.76.04-3.58-.26-5.25-.83-1.03-.35-2.02-.77-2.95-1.3-1.43-.79-2.73-1.8-3.9-2.96-.91-.89-1.87-1.84-2.43-3.11-.14-.27-.28-.54-.35-.84-.07-.28-.11-.51-.13-.71.02-.2.09-.37.16-.51.16-.28.4-.44.78-.57.17-.06.33-.13.5-.16.54-.11,1.12.24,1.51.71.5.74,1.08,1.3,1.63,1.88.51.6,1.13,1.17,1.82,1.7,1.02.8,2.22,1.51,3.5,2.04l-.03.09Z"/><path class="cls-4" d="M311.34,249.74c-.46-1.76-1.08-3.49-1.74-5.2-.26-.62-.61-1.19-.87-1.81-.97-2.15-1.94-4.35-3.11-6.45-.52-.93-1.1-1.84-1.72-2.69-.41-.54-.77-1.12-1.14-1.7-.38-.57-.72-1.17-.96-1.85-.16-.42-.06-.43.36-.31.3.08.61.17.89.25.35.12.69.32,1.01.58,1.14.92,2.08,2,2.94,3.15.9,1.12,1.61,2.39,2.25,3.69.37.79.83,1.54,1.24,2.33.43.78.87,1.55,1.23,2.36.83,1.76,1.5,3.6,2.14,5.43.35,1.15.71,2.29,1.01,3.44.49,1.74.81,3.53,1.21,5.28.28,1.36.74,2.68,1.01,4.04.07.3.16.59.19.9.15,1.13-.13,1.52-.9,1.81-.18.07-.35.15-.53.19-.59.14-1.16-.28-1.48-1.04-.84-2.28-1.19-4.68-1.75-7.07-.41-1.77-.8-3.56-1.37-5.31l.07-.03Z"/><path class="cls-4" d="M270.34,297.1c-.24.66-.57,1.35-1.1,2-.49.62-1.3,1.27-2.17,1.46-.62.15-1.28.25-1.97.05-.59-.17-1.18-.56-1.54-1.06-.36-.49-.5-.99-.58-1.43-.13-.85-.11-1.61,0-2.38.09-.67.2-1.34.39-1.97.23-.81.6-1.62,1.23-2.2.2-.18.4.02.54.36.13.34.27.82.17,1.19-.35,1.37-.37,2.68-.25,3.99.03.39.18.69.31.76.11.06.2.03.4.02.21-.02.48-.13.67-.25.23-.16.46-.44.64-.81.11-.23.2-.48.28-.76.08-.27.14-.59.16-.78.04-.25.05-.52-.01-.8-.06-.27-.24-.53-.5-.62l-.07-.02c-.47-.12-.87.39-1,.68-.04.07-.04.16-.07.21-.28.33-.58.36-1.3-.06-.16-.09-.34-.18-.49-.28-.53-.34-.79-.88-.57-1.44.07-.17.12-.28.25-.51.14-.2.3-.4.47-.59.35-.38.76-.72,1.23-.95.92-.48,2.01-.51,2.97-.12.51.24,1,.57,1.37,1.02.64.76.97,1.79,1.01,2.86,0,.27,0,.54-.03.81-.04.26-.06.4-.1.6-.07.36-.15.66-.26,1.01l-.08-.02Z"/><path class="cls-4" d="M315.15,389.42c.09.12.18.25.27.36.04.06.1.11.15.16.04.05.02.03.03.05.02.04.04.08.08.12.06.08.19.15.31.11.12-.03.18-.16.22-.29.01-.05.01-.05.02-.09.01-.13,0-.28,0-.42,0-.29-.02-.59-.06-.9-.1-.9-.4-1.82-.64-2.75-.43-1.64-.99-3.29-1.69-4.87-.35-.78-.73-1.56-1.14-2.29-.41-.72-.88-1.43-1.38-1.91-.34-.35-1.12-.72-1.8-1.03-.71-.31-1.44-.59-2.18-.86-.93-.38-1.89-.72-2.83-1.09-.95-.35-1.87-.8-2.7-1.5-.53-.39-.43-.51.21-.74.32-.1.8-.35,1.34-.48.27-.07.57-.16.86-.18.29,0,.58.03.87.1,1.04.24,2.07.5,3.1.8,1.02.33,2.01.76,3.03,1.23.52.25,1.01.5,1.65.93.7.5,1.13,1.01,1.51,1.51.76,1,1.28,2.01,1.74,3.04,1.04,2.47,2.19,4.92,2.83,7.59.17.74.31,1.48.39,2.26.04.39.07.79.07,1.2,0,.19,0,.4-.02.74-.01.29-.08.56-.12.84-.2,1.09-.81,2.05-1.78,2.46-1,.36-2.08.17-2.94-.51-.28-.18-.5-.46-.74-.69-.11-.12-.24-.24-.34-.37-.07-.13-.14-.2-.22-.3-.3-.37-.58-.74-.83-1.12-.52-.75-.98-1.52-1.43-2.28l-1.97-3.45c-.33-.56-.66-1.12-1.01-1.64-.34-.51-.75-1.04-1.07-1.27-.08-.06-.38-.21-.57-.31-.22-.11-.43-.21-.66-.3-.44-.2-.9-.36-1.36-.53-.92-.33-1.86-.61-2.8-.88-.42-.11-.83-.22-1.25-.33-.77-.23-1.27-.41-1.59-.66-.31-.29-.45-.59-.54-.96-.04-.17-.11-.34-.12-.49-.02-.25.16-.43.52-.58.35-.14.89-.29,1.51-.17,1.85.26,3.72.7,5.59,1.39.46.18.93.38,1.39.6l.69.34.35.19c.11.06.21.11.44.27.81.58,1.1,1.04,1.46,1.49.33.45.62.88.89,1.3.8,1.26,1.47,2.51,2.17,3.71.69,1.2,1.39,2.39,2.15,3.38l-.05.05Z"/><path class="cls-4" d="M322.45,386.74c.04-.05.07-.07.07-.22v-.07s-.03-.13-.04-.2l-.09-.46c-.06-.31-.13-.62-.21-.93-.3-1.26-.69-2.53-1.11-3.79-.31-.92-.72-1.8-1.06-2.72-.58-1.61-1.18-3.24-1.88-4.74-.17-.36-.36-.75-.53-1.01-.06-.12-.12-.16-.18-.23-.1-.09-.27-.2-.4-.3-.65-.43-1.43-.82-2.18-1.21-1.37-.66-2.82-1.22-4.24-1.77-1.84-.7-3.75-1.13-5.41-2.36-.48-.56-.45-.42.18-.73.65-.39,1.8-.76,2.98-.59,2.01.49,3.98,1.09,5.91,1.86.95.42,1.9.87,2.84,1.38.47.26.95.54,1.44.86l.39.29.19.15.26.23c.36.31.59.7.74.95.68,1.28,1.16,2.39,1.71,3.57.54,1.16,1.06,2.33,1.49,3.53.48,1.31.91,2.64,1.31,3.99.19.68.38,1.36.54,2.05.08.35.16.7.23,1.05l.1.56.11.74c.07.7.09,1.39-.07,1.98-.13.58-.56,1.13-1.17,1.29-.26.08-.52.12-.78.14l-.39.04c-.13,0-.27-.03-.4-.05-.53-.04-1.06-.28-1.55-.53l-.59-.39c-.22-.12-.34-.31-.47-.41-.27-.25-.51-.51-.73-.78-.46-.53-.83-1.11-1.19-1.67-.71-1.14-1.29-2.33-1.79-3.55-.2-.47-.38-.95-.54-1.45-.16-.5-.29-.9-.47-1.34-.34-.85-.79-1.62-1.34-2.27-.24-.28-.51-.53-.79-.78-1.05-.89-1.43-1.16-1.43-1.89,0-.16-.04-.33-.02-.47.03-.45.87-.62,2.05.04.86.49,1.68,1.18,2.33,2.01.66.83,1.13,1.76,1.52,2.7.09.23.19.47.26.71l.23.65c.13.36.29.75.46,1.12.35.76.74,1.52,1.18,2.22.55.93,1.24,1.79,1.94,2.39.5.38.31.26.36.31.02.02.04.04.08.04.02,0,.04,0,.05-.01l.08.07Z"/><path class="cls-4" d="M451.39,319.26l-4.79,16.02-4.67,15.21c-3.18,10.12-6.43,20.23-10.08,30.23-1.34,3.65-2.71,7.29-4.23,10.9-.78,1.8-1.56,3.6-2.5,5.37-.47.89-.96,1.77-1.52,2.64-.58.87-1.17,1.74-2.15,2.61-.21.17-.53.43-.86.58-.33.17-.68.32-1.05.34-.19,0-.37.05-.55.04h-.44s-.6-.01-.6-.01c-.78-.02-1.68,0-2.51,0l-5.1.07-10.21.17-20.43.36-40.86.65c-6.04.08-12.11.16-18.15.24-3.03.03-6.05.06-9.06.09-1.51,0-3.02,0-4.52.01l-2.26.05h-.28s-.33-.02-.33-.02l-.67-.06-1.34-.12-2.82-.25-1.42-.12-.71-.06c.04-.24.09-.46.16-.64.14-.36.28-.65.49-.97.23-.32.49-.64.86-.99.75-.72,1.86-1.4,2.84-2.25.11-.11.21-.21.33-.3l.17-.13.04-.03h.01s.08.12.05.06h.02s.1-.06.1-.06c.27-.09.53-.23.84-.23l1.29-.08,2.32-.1,4.62-.14,9.22-.17c3.07-.05,6.14-.07,9.21-.01l4.6.06c1.54.12,3.07.17,4.6.27,4.81.34,4.16.4.1,1-4.06.67-11.52,1.87-20.39,2l-8.23.22-4.1.14c-1.22.04-3.28.17-2.69.14h.02s.03-.04.03-.04h0s0,0,0,0h0s0,0,0,0h0s0,0,0,0l.58.03.99.04c.81.02,1.62.07,2.43.05l4.86-.02c6.49-.08,12.98-.16,19.48-.24,13.01-.21,26.04-.42,39.13-.63,9.48-.14,19.16-.39,28.89-.66,4.87-.13,9.75-.26,14.63-.39,1.24-.02,2.4-.08,3.73-.07.42,0,.39,0,.51,0,.09-.03.19-.06.26-.13.28-.21.63-.61.94-1.04,1.28-1.77,2.31-3.97,3.31-6.11,2.18-4.77,4.04-9.76,5.83-14.76,1.79-5,3.48-10.05,5.12-15.12,3.29-10.13,6.39-20.34,9.43-30.56l3.89-13.16c.06-.23.16-.48.19-.71-.24-.06-.49-.05-.74-.07l-.78-.03-1.52-.03-6.21-.05-12.43.04c-9.94.07-19.9.17-29.85.35-4.97.09-9.94.2-14.89.36l-3.71.14-1.84.09-1.69.11c-.18.02-.35.03-.52.06-.19.03-.2.27-.29.41l-.61,1.44-1.37,3.43c-5.56,14.28-10.57,28.47-15.58,42.78-1.09,3.16-2.15,6.24-3.24,9.43-4.08,11.79-5.47,15.5-7.14,17.77-.37.52-.79,1.23-1.07,1.51-.92.97-.01-4.1,2.78-12.83,4.11-12.95,8.67-26.13,13.48-39.44,2.41-6.65,4.88-13.33,7.47-20.02l.98-2.51.5-1.26.26-.63.13-.32.18-.42c.17-.36.32-.73.5-1.09.26-.32.46-.72.76-.98.34-.21.66-.45,1.09-.53.42-.09.87-.13,1.31-.18l1.54-.11,1.36-.08c3.62-.18,7.21-.29,10.8-.4,10.57-.3,21.15-.49,31.75-.62,5.3-.07,10.6-.08,15.9-.08l7.97.04,2,.03,2.65.07c1.25.05,2.68.1,3.19.76l.1.29.05.14.03.08v.04c-.2.16.31-.19.26-.15v.02s.1.67.1.67l.19,1.34-.34,1.16-.11.05Z"/><path class="cls-4" d="M173.59,416.97c-1.22.68-2.12,1.7-2.54,3.1-.15.5-.15.99-.17,1.48-.08,1.75,1,3.7,2.64,5.09.7.65,1.53,1.2,2.4,1.62.55.28,1.12.54,1.71.77.28.14.59.21.87.37.28.19.57.34.87.49.37.21.33.19-.04.3-.18.06-.46.17-.8.31-.17.05-.36.15-.56.18-.19.01-.4.02-.59-.01-.71-.11-1.42-.26-2.11-.47-.68-.24-1.35-.54-2-.88-1.31-.67-2.44-1.73-3.3-3.01-.48-.79-1.01-1.58-1.35-2.51-.39-.9-.55-1.92-.54-2.92.1-1.1.38-2.12.87-3.06l.38-.7c.13-.23.32-.43.48-.64.17-.2.32-.43.51-.61l.58-.53c.97-.83,2.1-1.42,3.23-1.81,1.73-.62,3.5-.81,5.23-.96,1.35-.12,2.67-.3,4.03-.3.3,0,.6-.03.9,0,1.11.1,1.43.43,1.49,1.26.01.19.04.39.03.57-.04.63-.56,1.06-1.3,1.14-2.21.22-4.43.18-6.57.46-1.58.2-3.11.58-4.29,1.32l-.04-.06Z"/><path class="cls-4" d="M198.33,387.22c-1.87,2.04-3.74,3.84-4.73,5.87-.39.74-.47,1.52-.59,2.29-.13,1.35.33,2.8,1.21,4.06.87,1.26,2.12,2.32,3.54,3.04,1.27.66,2.71,1.08,4.16,1.29,1.88.28,3.81.3,5.76.47.61.05.54.3.03.6-.51.29-1.45.71-2.61.8-2.04.15-4.17.13-6.3-.37-2.15-.42-4.21-1.72-5.7-3.41-.9-1.01-1.7-2.18-2.25-3.51-.54-1.33-.75-2.87-.53-4.3.25-1.58.92-3,1.7-4.24.79-1.23,1.7-2.31,2.58-3.34,1.08-1.28,2.16-2.5,2.97-3.8.6-.99,1.07-2.02,1.27-3.08.04-.53.13-1.07.04-1.59-.07-.53-.2-1.05-.4-1.55-.65-1.59-1.97-2.74-3.42-3.66-.32-.2-.65-.39-.97-.61-1.2-.81-1.5-1.25-1.31-2.28.04-.23.06-.48.13-.69.22-.72,1.11-.98,2.32-.56,1.8.61,3.58,1.74,5,3.47,1.39,1.71,2.45,4,2.36,6.55-.06,1.86-.71,3.58-1.52,4.97-.82,1.4-1.77,2.57-2.69,3.62l-.07-.05Z"/><path class="cls-4" d="M192.73,454.48c-1.13.28-11.05.23-8.93,3.05,2.12,2.82,19.39,2.84,19.39,2.84l-9.74-4.89-.71-1Z"/><path class="cls-4" d="M192.07,430.14c1.06,5.8,3.92,24.34,10.41,24.34,8.08,0,9.56-18.65,9.83-24.38.04-.9-20.41-.89-20.24.04Z"/><path class="cls-4" d="M122.15,368.44c-3.1-.09-6.2-.15-9.31-.19-1.13-.02-2.27.07-3.4.02l-12.01-.48c-1.78-.03-3.56-.15-5.32-.19-1.13-.05-2.27-.1-3.4-.16-1.13-.1-2.26-.26-3.39-.43-.7-.12-.6-.31.01-.57.61-.25,1.72-.65,3.01-.79,2.3-.17,4.59-.32,6.89-.46,2.3-.06,4.6.02,6.92.11,2.78.14,5.66-.11,8.5-.17h9.39s5.79.01,5.79.01c2.92,0,5.86.09,8.77.07,2.26-.01,4.48-.21,6.74-.26.5-.02.98-.03,1.48,0,1.85.15,2.42.45,2.74,1.34.07.2.17.41.21.6.12.66-.67,1.17-2.01,1.35-.5.06-.99.12-1.49.18-.5.07-1.01.13-1.51.14-1.01.05-2.02.06-3.05.09-2.05.02-4.13,0-6.21-.02-3.11-.04-6.23-.08-9.35-.12v-.08Z"/><path class="cls-4" d="M452.28,369.8l5.19.28c.63.04,1.26,0,1.9.05,2.23.18,4.47.36,6.69.54.99.08,1.98.16,2.97.24,1.26.09,2.53.2,3.77.52.39.1.31.32-.05.55-.36.23-.99.5-1.7.55-1.27.07-2.54.14-3.81.21-1.27.06-2.54-.05-3.83-.14-1.54-.13-3.14.04-4.71.07-1.73.04-3.47.02-5.21,0l-3.21-.02c-1.62,0-3.26-.04-4.87.04-1.25.06-2.48.3-3.73.46-.27.04-.54.08-.82.09-1.03.01-1.35-.22-1.56-1.06-.05-.19-.11-.38-.13-.57-.09-.64.34-1.18,1.08-1.39,1.1-.33,2.22-.48,3.36-.54,1.14-.08,2.3-.08,3.46-.08,1.73.01,3.47.08,5.21.12v.07Z"/><path class="cls-4" d="M46.72,101.82l.48-1.66c.16-.56.41-1.08.6-1.62l1.27-3.21,1.54-3.09c.26-.51.51-1.03.79-1.53l.9-1.47c2.29-3.99,5.26-7.51,8.34-10.86,1.64-1.59,3.21-3.25,4.99-4.66.88-.72,1.71-1.5,2.63-2.17l2.76-2c.9-.7,1.88-1.27,2.84-1.87.97-.59,1.91-1.22,2.91-1.77l3.03-1.57,1.52-.78c.51-.26,1.05-.44,1.57-.67,1.55-.6,3.05-1.32,4.63-1.84l4.76-1.49,4.87-1.06c1.64-.29,3.3-.43,4.95-.64,5.84-.47,11.75-.13,17.49,1.05,5.75,1.18,11.25,3.38,16.32,6.29,5.05,2.93,9.72,6.59,13.51,11.04l.74.8c.24.27.45.58.67.86l1.32,1.74,1.32,1.74,1.19,1.86c1.52,2.52,2.77,5.17,3.79,7.9.91,2.43,1.57,4.93,2.13,7.45.52,2.53.87,5.09,1.08,7.66.33,5.14.04,10.31-.94,15.32-1.26,6.42-3.56,12.75-7.3,18.23-3.73,5.44-8.92,10.09-15.1,12.39-2,.52-2.86.66-2.83.58.02-.11.93-.51,2.33-1.48,1.35-1.06,3.33-2.34,5.34-4.33,2.03-1.93,4.19-4.35,6.2-7.21,1.77-2.55,3.27-5.28,4.5-8.14,1.22-2.87,2.15-5.86,2.81-8.92,1.34-6.12,1.54-12.47.85-18.68-.72-6.21-2.51-12.32-5.55-17.72-3.14-5.31-7.35-10.22-12.33-14.11-5.97-4.67-13.23-7.94-20.88-9.56-7.67-1.6-15.72-1.37-23.35.26-2.13.36-4.16,1.08-6.22,1.69-1.05.27-2.02.73-3.03,1.13l-2.99,1.22-2.88,1.48c-.95.51-1.94.95-2.84,1.56l-2.76,1.71c-.93.56-1.77,1.25-2.66,1.87-7.06,5.04-12.98,11.6-17.34,19.06-5.2,9.25-7.59,20.17-5.93,30.73.07,1.01.38,1.98.57,2.97.23.98.41,1.98.68,2.95l.95,2.88c.32.96.61,1.94,1.04,2.85,1.5,3.75,3.6,7.26,6.11,10.41,2.51,3.16,5.46,5.97,8.71,8.36,3.28,2.36,6.85,4.3,10.57,5.85l2.18.88,2.22.74,1.11.37,1.13.3,2.26.6c3.04.68,6.1,1.23,9.19,1.5,6.17.64,12.38.36,18.46-.7,2.68-.46,5.25-1.14,7.87-1.93,4.84-1.49,7.88-2.9,10.04-3.81,1.1-.44,1.94-.81,2.69-1.06.76-.23,1.38-.39,1.97-.49.54-.09,1.21-.27,1.57-.27.61.02.09.7-1.39,1.96-1.5,1.22-4.06,2.9-7.63,4.5-10.58,4.74-22.82,6.56-34.86,5.16-6.02-.64-12.03-2.11-17.76-4.42-2.88-1.11-5.64-2.58-8.33-4.16-.67-.4-1.3-.86-1.96-1.29-.64-.45-1.32-.84-1.92-1.34-1.23-.98-2.5-1.89-3.63-2.99-3.47-3.12-6.49-6.77-8.91-10.78l-1.68-3.09c-.52-1.05-.96-2.14-1.44-3.2l-.35-.8-.28-.82-.56-1.65c-.35-1.11-.79-2.19-1.06-3.32-.49-2.28-1.16-4.52-1.34-6.86-.12-1.16-.33-2.32-.38-3.48l-.07-3.51c.1-4.67.67-9.36,2.07-13.82h.1Z"/><path class="cls-4" d="M109.78,119.61c3.14-1.39,6-3.46,8.23-6.08,2.23-2.61,3.8-5.76,4.48-9.13.28-1.23.34-2.48.35-3.77v-.96s-.05-.95-.05-.95c-.04-.63-.07-1.27-.19-1.89-.51-4.43-2.68-8.56-6.03-11.52-3.35-2.98-7.77-4.78-12.33-5.3-4.05-.4-8.27.12-11.99,1.72-2.39,1.01-4.59,2.43-6.54,4.13-.51.41-.95.87-1.4,1.34-.47.45-.88.95-1.29,1.45-.42.5-.84,1-1.24,1.52l-.62.78c-.19.27-.33.57-.57.82-1.14,1.28-1.02,1.15-.86-.4.04-.8.32-1.84.72-3.14.21-.64.6-1.25.97-1.93.39-.66.93-1.29,1.47-1.94.52-.55,1.07-1.06,1.61-1.59.57-.49,1.17-.96,1.75-1.44.62-.43,1.26-.84,1.9-1.24.67-.35,1.33-.72,2.01-1.04,2.74-1.27,5.69-2.06,8.69-2.36,5.98-.57,12.19.84,17.21,4.25,2.97,2.06,5.63,4.77,7.39,8.06,1.77,3.27,2.69,6.99,2.75,10.63-.04,1-.02,1.99-.12,2.99-.08,1.01-.26,2-.46,2.99-.44,1.97-1.15,3.88-2.08,5.66-1.87,3.57-4.64,6.59-7.88,8.87-3.99,2.81-8.73,4.5-13.58,4.86-3.67.25-7.41-.3-10.82-1.68-3.4-1.39-6.49-3.58-8.81-6.39-3.66-4.32-5.75-9.87-5.63-15.56.07-1.25.11-2.48.39-3.72.17-1.16.56-2.07.79-2.85.3-.76.69-1.31.97-1.77.57-.92,1.18-1.29,1.67-1.56.23-.12.48-.3.64-.35.27-.08.25.32.12,1.13-.04.42-.23.88-.35,1.46-.12.59-.29,1.25-.47,1.98-1.19,4.33-.94,9.06.68,13.31,1.65,4.24,4.75,7.88,8.71,10.11,2.96,1.65,6.34,2.51,9.76,2.55,3.42.03,6.87-.69,10.02-2.12l.04.07Z"/><path class="cls-4" d="M94.8,142.93c.82,1.96-.1,4.21-2.06,5.03s-4.21-.1-5.03-2.06c-1.84-4.39,5.1-7.71,7.09-2.98Z"/><path class="cls-4" d="M107.62,137.55c.82,1.96-.1,4.21-2.06,5.03-1.96.82-4.21-.1-5.03-2.06-1.84-4.39,5.1-7.71,7.09-2.98Z"/><path class="cls-4" d="M119.75,132.45c.82,1.96-.1,4.21-2.06,5.03s-4.21-.1-5.03-2.06c-1.84-4.39,5.1-7.71,7.09-2.98Z"/><path class="cls-4" d="M132.76,126.99c.82,1.96-.1,4.21-2.06,5.03-1.96.82-4.21-.1-5.03-2.06-1.84-4.39,5.1-7.71,7.09-2.98Z"/><path class="cls-4" d="M145.75,121.54c.82,1.96-.1,4.21-2.06,5.03s-4.21-.1-5.03-2.06c-1.84-4.39,5.1-7.71,7.09-2.98Z"/><path class="cls-4" d="M154.37,205.07c2-3.5,4.62-6.58,7.54-9.21,2.92-2.64,6.12-4.86,9.4-6.84,6.56-3.95,13.42-7.01,19.79-10.67,1.14-.68,2.33-1.35,3.33-2.1.51-.38,1.07-.7,1.54-1.13l1.44-1.25c1.82-1.77,3.5-3.69,4.83-5.91,2.46-3.83,4.15-8.27,5.94-12.72,1.77-4.48,3.67-9.04,6.24-13.3,2.52-4.28,5.96-8.08,9.77-11.22,3.83-3.16,8.18-5.64,12.76-7.48,4.07-1.62,8.39-2.71,12.78-3.11,4.39-.41,8.85-.06,13.1.96,5.44,1.36,10.7,3.77,15.11,7.38,2.19,1.82,4.09,3.99,5.65,6.38,1.58,2.38,2.58,5.09,3.25,7.8.6,3.46.23,2.97-1.07.4-.37-.62-.84-1.36-1.36-2.19-.65-.77-1.18-1.71-2.02-2.57-1.49-1.82-3.3-3.8-5.5-5.68-3.79-3.47-8.5-5.97-13.49-7.45-5-1.46-10.26-1.85-15.45-1.11-5.18.76-10.28,2.45-14.92,5.05-4.67,2.54-8.91,5.94-12.36,9.99-4.11,4.89-6.79,11.08-9.21,17.46-1.23,3.2-2.46,6.48-4.04,9.68-1.57,3.19-3.55,6.28-6.06,8.91-2.73,2.92-6.19,5.13-9.47,6.95-3.33,1.88-6.71,3.57-10.05,5.3-6.63,3.46-13.23,7.04-18.48,12.11-3.26,3.08-5.77,6.81-7.49,10.93-1.71,4.16-2.77,8.6-2.94,13.07-.06,1.69.03,3.38.22,5.06.23,1.67.6,3.32,1.1,4.92.56,1.57,1.19,3.18,2.07,4.53.89,1.39,2.01,2.68,3.17,3.98,1.16,1.3,2.38,2.6,3.5,4.04,1.11,1.44,2.14,3.05,2.7,4.92.17.45.22.95.32,1.43.09.48.1.92.15,1.38.06.91.08,1.82.06,2.72-.05,1.81-.24,3.58-.48,5.33-.37,2.72-.86,5.37-1.19,7.99-.33,2.62-.47,5.22-.08,7.68.37,2.46,1.38,4.72,2.97,6.54.78.93,1.7,1.74,2.71,2.46.99.75,2.09,1.34,3.2,1.88,1.99.91,4.09,1.43,6.3,1.74,4.11.52,6.92.19,8.89.15,1.98-.05,3.17.01,4.18.28.46.11,1.06.19,1.36.34.5.24-.09.72-1.63,1.35-1.54.61-4.05,1.36-7.44,1.58-4.97.34-10.41-.4-15.13-3.16-2.31-1.38-4.51-3.12-6.17-5.49-.82-1.17-1.51-2.47-2-3.83-.48-1.36-.78-2.77-.93-4.16-.32-2.79-.08-5.48.24-8.06.34-2.57.8-5.06,1.16-7.48.35-2.42.61-4.8.5-7.08-.01-.56-.08-1.16-.14-1.66l-.12-.68-.22-.68c-.33-.91-.85-1.83-1.5-2.74-1.95-2.76-4.91-5.2-7.3-8.75-1.24-1.87-1.97-3.75-2.65-5.71-.65-1.96-1.04-3.98-1.29-6-.25-2.03-.27-4.06-.15-6.08.11-2.02.39-4.01.82-5.97.84-3.94,2.18-7.65,4.12-11.28l.09.03Z"/><path class="cls-4" d="M250.86,196.02c-.09.8-.21,1.61-.42,2.45-.21.84-.48,1.72-1.03,2.65-.15.23-.31.47-.51.7-.2.24-.47.5-.75.69-.55.4-1.2.69-1.88.75-.69.08-1.08,0-1.6-.01-.49-.07-1-.2-1.48-.34-.95-.38-1.84-.91-2.51-1.56l-.5-.49-.42-.51c-.3-.34-.52-.69-.76-1.03-.92-1.38-1.56-2.75-2.25-3.96-.49-.88-1.04-1.66-1.6-2.16-.14-.15-.28-.24-.42-.32l-.2-.14-.3-.14-.61-.29-.63-.22c-1.48-.52-3.11-.55-4.67-.16-1.55.39-3.06,1.22-4.14,2.37-.56.59-.93,1.15-1.27,1.97-.19.38-.29.79-.44,1.18-.09.41-.23.81-.28,1.23-.29,1.66-.18,3.41.34,5.05.87,2.96,3.09,5.44,5.78,6.9,1.7.97,3.61,1.41,5.5,1.28,1.91-.12,3.7-.88,5.7-1.56,1.24-.45,1.23-.27.58.84-.15.29-.38.6-.63.98-.23.44-.62.73-1.02,1.12-.41.37-.91.74-1.49,1.04-.3.13-.61.27-.93.39-.33.1-.68.19-1.04.27-2.57.48-5.34.03-7.64-1.09-1.17-.55-2.18-1.26-3.15-2.08-.97-.82-1.84-1.75-2.57-2.79-1.48-2.05-2.44-4.51-2.69-7.05-.26-2.54.23-5.15,1.37-7.39.14-.33.38-.7.59-1.05.23-.34.48-.66.73-.97.53-.59,1.1-1.14,1.73-1.6,1.24-.94,2.64-1.64,4.14-2.06,1.49-.43,3.09-.56,4.65-.35.78.11,1.55.28,2.28.55.38.11.73.28,1.08.45l.53.25c.18.1.38.24.56.36,1.65,1.16,2.42,2.67,3.18,3.99.74,1.34,1.38,2.63,2.14,3.71.76,1.1,1.65,1.83,2.7,2.08.26.09.54.1.83.11.31.02.42.03.58-.04.15-.06.28-.15.4-.28.14-.17.29-.38.41-.65.61-1.33.79-3.16.87-4.89.07-1.76,0-3.56-.15-5.34-.06-.68-.12-1.36-.2-2.03l-.16-1.22c-.04-.25-.06-.5-.08-.75,0-.12-.03-.25-.02-.36l.04-.32c.04-.1-.02-.23.09-.3.04-.11.11-.19.19-.26.17-.14.36-.27.58-.39.43-.23.92-.41,1.37-.6l1.9-.79c2.52-1.05,4.94-2.29,7.15-3.8,3.43-2.34,6.29-5.37,7.96-8.91.37-.78.64-1.57.9-2.38.47-1.51.66-2.53.91-3.25.24-.72.55-1.14,1.01-1.49.21-.16.42-.38.62-.48.63-.36,1.44,1.13,1.1,3.93-.51,4.14-2.73,8.12-5.7,11.15-2.97,3.08-6.61,5.33-10.31,7.23-1.37.71-2.78,1.37-4.18,1.92-.1.04-.05,0-.07.02h0s0-.01,0,.04l.03.29.06.57c.31,3.07.49,6.13.2,9.37h-.08Z"/><path class="cls-4" d="M323.23,216.78c1.03-2.68,2.05-5.3,2.76-7.94.37-1.32.61-2.63.76-3.93l.04-.96c.02-.32.03-.64-.02-.95l-.08-.93c-.06-.3-.14-.58-.21-.88-.39-1.67-1.62-3.29-2.81-4.86-2.16-2.78-4.79-5.3-7.48-7.71-1.36-1.2-2.76-2.34-4.21-3.43-.72-.54-1.46-1.07-2.2-1.56-.37-.24-.75-.49-1.11-.7l-.35-.2-.29-.15c-.18-.07-.37-.17-.56-.14-.17.08-.34.22-.4.41-.13.39.07.79.27,1.12.1.16.34.53.57.82.23.3.48.61.74.9.52.59,1.07,1.17,1.63,1.74.71.73,1.5,1.48,2.2,2.27.66.71,1.45,1.43,2.15,2.27.7.84,1.37,1.82,1.65,2.94.29,1.12.21,2.25.03,3.29-.25,1.31-.3,1.09-.3,0-.05-.54-.17-1.34-.61-2.12-.1-.2-.24-.39-.36-.58-.13-.19-.31-.36-.44-.56-.28-.38-.61-.75-.98-1.13-.65-.68-1.48-1.25-2.3-2.01-.21-.19-.42-.39-.63-.61l-.54-.54-1.14-1.06c-.78-.73-1.58-1.47-2.36-2.3-.39-.42-.77-.85-1.14-1.34-.32-.4-1.07-1.51-1.29-2.41-.24-.94-.16-1.82.27-2.57.42-.71,1.16-1.39,1.95-1.52.75-.18,1.71.17,2.6.59l.67.34.42.23c.27.15.51.3.74.45,1.89,1.21,3.62,2.54,5.3,3.94,2,1.69,4.02,3.42,5.94,5.31,1.91,1.89,3.79,3.88,5.32,6.21.41.65.81,1.31,1.15,2.05.18.35.32.75.47,1.13.12.39.21.79.31,1.19l.14.6.06.6.1,1.19c-.04.78,0,1.57-.12,2.33-.36,3.05-1.29,5.88-2.27,8.62-1.2,3.37-2.65,6.64-3.45,9.94-.25,1.25-.43,2.45-.17,3.6.27,1.23.65,2.5,1.09,3.75.88,2.5,1.9,4.97,2.97,7.4,1.68,3.78,3.63,7.34,5.47,10.99.41.8.84,1.57,1.24,2.39,1.49,3.02,1.8,4.06,1.46,5.04-.08.22-.13.49-.24.66-.36.55-1.41-.47-2.69-2.6-3.82-6.32-7.24-13.28-10.14-20.63-.53-1.38-1.05-2.75-1.48-4.22-.24-.71-.41-1.51-.6-2.29-.07-.44-.12-.92-.17-1.37,0-.45.03-.89.05-1.34.19-1.7.59-3.21,1.06-4.64.46-1.44.97-2.81,1.47-4.18l.07.02Z"/><path class="cls-4" d="M225.79,229.43s0,0,.06.02l.29.03.59.05,1.2.09c.8.05,1.62.08,2.43.1,1.63.04,3.27.05,4.91.01,1.2-.02,2.39-.17,3.58-.22l1.57-.07.78-.05c.16-.01.12,0,.18,0h.12c.17,0,.36,0,.55-.02.3.03.18-.21.16-.37-.03-.17-.09-.36-.14-.56l-.19-.51c-.08-.24-.2-.47-.3-.71-.4-.95-.87-1.89-1.36-2.82-.88-1.65-1.92-3.24-2.96-4.81-1.23-2.08-2.72-4.08-3.28-6.58-.13-.79-.17-.65.36-.2.56.43,1.69,1.11,2.58,2.15l2.34,2.85c.77.97,1.47,2,2.18,3.04.71,1.04,1.38,2.12,2.01,3.24.31.57.62,1.14.89,1.74.14.3.28.59.4.91l.56,1.36c.19.6.38,1.2.58,1.81-.01.49-.11.94-.14,1.41-.45.84-1.66,1.1-2.92,1.31l-1.62.2-1.17.12c-.78.07-1.55.13-2.32.17-3.39.16-6.78.2-10.2.04-.53-.03-1.06-.06-1.59-.1l-1.01-.09c-.39-.04-.77-.09-1.15-.16-.74-.13-1.44-.33-1.96-.64-.26-.16-.51-.32-.7-.56-.04-.36-.03-.59,0-.87,0-.2.05-.43.08-.65.09-.24.19-.48.31-.73.26-.5.56-1,.85-1.48l.74-1.18.64-.99c.85-1.32,1.7-2.64,2.55-3.95,1.29-2.05,2.39-4.16,3.62-6.23.27-.46.51-.92.8-1.37,1.09-1.66,1.68-2.05,2.71-1.8.23.05.48.08.67.16.65.28.72,1.29.07,2.56-1.9,3.8-4.3,7.58-6.65,11.37l-1.31,2.1-.32.52-.07.11s-.02,0-.03.02c-.09.04-.06.11.03.13l-.02.09Z"/><path class="cls-4" d="M341.01,258.97c-4.05.34-8.14,1.08-12.18,2.01-4.04.95-8.05,2.09-11.9,3.52-1.4.53-2.77,1.12-4.01,1.8-.31.17-.6.34-.88.52-.13.09-.26.18-.38.26-.07.05-.08.06-.12.1-.06.06-.14.14-.13.23,0,.12-.01.08.04.49.16,1.13.53,2.41.91,3.66.4,1.25.84,2.51,1.3,3.77.93,2.51,1.94,5.02,2.97,7.51,2.07,4.99,4.27,9.95,6.45,14.91,1.94,4.41,3.99,8.8,5.99,13.14l1.94,4.19c.62,1.41,1.21,2.83,1.8,4.26.59,1.42,1.14,2.87,1.63,4.33l.74,2.2c.23.74.41,1.5.6,2.25.43,1.89.26,1.67-.68.29-.97-1.36-2.82-3.8-4.44-6.93l-2.11-4.18c-.71-1.39-1.33-2.83-2-4.24-1.32-2.84-2.63-5.68-3.95-8.53-2.64-5.69-5.18-11.46-7.55-17.35-1.42-3.52-2.94-7.08-4.36-10.74-.71-1.84-1.4-3.68-1.96-5.64-.14-.49-.28-.98-.38-1.51-.06-.26-.12-.51-.16-.8l-.06-.42c-.02-.16-.06-.34-.05-.55.03-.4,0-.8.07-1.19.09-.39.3-.73.55-1.04.25-.31.56-.58.87-.82.27-.2.48-.34.72-.5,2.03-1.23,4.04-2,6.08-2.77,2.04-.75,4.09-1.41,6.16-2.01,4.14-1.19,8.33-2.18,12.58-2.89,2.62-.43,5.27-.77,7.96-.87,1.35-.05,2.71-.04,4.09.1,1.38.18,2.8.37,4.24,1.22,1.05.69,1.74,1.48,2.43,2.28.65.81,1.27,1.63,1.83,2.47,1.14,1.68,2.18,3.4,3.17,5.14,1.98,3.48,3.79,7.02,5.56,10.55,2.73,5.5,5.41,10.89,7.87,16.45.54,1.22,1.09,2.42,1.6,3.67,1.87,4.65,2.04,6.3,1.55,7.6-.12.3-.2.67-.35.86-.48.66-1.7-1.05-3.21-4.34-4.43-9.77-9.03-20.14-14.36-30.08-1-1.84-2.02-3.65-3.1-5.41-1.08-1.74-2.21-3.5-3.43-4.91-.6-.72-1.24-1.31-1.62-1.46-.59-.28-1.48-.47-2.4-.57-1.86-.21-3.9-.14-5.93.04l-.02-.08Z"/><path class="cls-4" d="M297.24,360.65l6.47-4.58c1.11-.76,2.18-1.52,3.37-2.25.28-.19.63-.37.94-.56.33-.17.85-.45,1.27-.55.89-.25,1.65-.3,2.4-.33,2.15-.04,4.15.14,6.14.54,2.48.52,4.9,1.24,7.25,2.3,1.18.54,2.32,1.16,3.44,2.07,1.57,1.22,2.49,2.92,2.26,4.56-.11.63-.47,1.3-1.05,1.58-.54.33-1.2.48-1.92.53-.7.06-1.53-.04-2.19-.12-.51-.08-1.01-.17-1.51-.27-1.52-.31-3-.67-4.47-1-.73-.17-1.46-.33-2.18-.47-.69-.13-1.46-.27-1.97-.26-.06,0-.09,0-.14.01-1.53.24-3.18,1.04-4.71,1.91l-2.32,1.35c-.74.5-1.7.74-2.56,1.16-1.06.57-.92.54-.44-.44.26-.47.47-1.34.91-2.27.21-.47.56-.84.91-1.27.19-.2.38-.41.58-.62.22-.18.46-.35.7-.52.93-.61,1.9-1.18,2.95-1.67,1.06-.48,2.16-.93,3.53-1.12.7-.07,1.08,0,1.49.03.38.05.74.11,1.07.18.67.13,1.31.28,1.93.43l3.65.91c.6.15,1.19.28,1.77.4l.86.17.4.07.05.02c.08.03.17.06.29.08.12.02.28-.02.31-.14.07-.12.05-.28-.02-.43-.03-.06-.07-.12-.12-.18-.02-.03-.05-.06-.08-.09,0-.02-.16-.14-.24-.2-.41-.29-.85-.58-1.33-.83-.95-.52-2-.96-3.09-1.33-2.17-.74-4.48-1.25-6.76-1.56-1.24-.17-2.51-.28-3.67-.21-.58.04-1.12.1-1.48.26-.1.05-.17.06-.3.14l-.39.22c-.26.14-.53.32-.8.49-2.17,1.39-4.34,2.95-6.5,4.48-2.66,1.89-5.33,3.8-8.05,5.66-1.03.7-2.08,1.39-3.18,2.05-.56.34-1.12.63-1.69.91-.56.3-1.13.57-1.71.83-2.29,1.06-4.67,1.95-7.08,2.65-3.74,1.1-7.55,1.82-11.44,1.99-.85.03-1.69.07-2.55.04-1.6-.06-2.64-.22-3.36-.44-.71-.28-1.09-.59-1.38-1-.13-.19-.31-.37-.37-.54-.22-.55,1.11-.93,3.32-.97,1.65-.03,3.3-.09,4.96-.25,1.66-.13,3.31-.33,4.96-.64,3.3-.58,6.56-1.53,9.68-2.86,1.16-.49,2.3-1.03,3.42-1.63.57-.29,1.12-.59,1.62-.9.52-.32,1.06-.66,1.6-1.03,2.15-1.44,4.3-3,6.44-4.56l.05.06Z"/><path class="cls-4" d="M296.74,383.97c2.05.28,3.95.85,5.81,1.9.9.5,1.86,1.3,2.5,2.05.65.74,1.2,1.45,1.77,2.14.41.49.83.97,1.27,1.38.58.54.5.45.67.61.13.11.31.22.51.21.16,0,.25-.14.27-.27.03-.14.02-.29,0-.44l-.04-.24c-.04-.18-.12-.43-.18-.64-.14-.45-.29-.89-.45-1.34-.67-1.79-1.5-3.58-2.44-5.25-.12-.21-.25-.42-.37-.61l-.19-.28c-.07-.09-.08-.1-.13-.16l-.11-.09-.2-.13c-.13-.09-.3-.18-.46-.28l-.99-.55c-.67-.36-1.36-.71-2.04-1.05-1.17-.59-2.38-1.09-3.54-1.71-1.15-.63-2.29-1.28-3.35-2.11-.62-.6-.5-.64.33-.8.42-.09.99-.13,1.66-.17.66,0,1.4.09,2.13.32.74.21,1.44.53,2.13.85l2.08.97c.69.33,1.38.68,2.07,1.04.35.18.69.37,1.05.6.18.11.35.21.55.35.1.07.18.12.32.22.15.11.29.23.43.35.45.48.6.78.78,1.05.18.29.33.56.48.84.3.55.58,1.1.84,1.66.52,1.11.99,2.25,1.39,3.42.18.53.35,1.06.53,1.59.17.56.32.97.54,1.98.37,1.73.24,3.46-1.28,4.12-.81.25-1.61.25-2.44-.1-.41-.22-.82-.4-1.2-.72-.19-.15-.39-.27-.57-.44l-.46-.43c-1.39-1.4-2.51-2.9-3.65-4.14-1.02-1.13-2.55-1.82-4.18-2.28-.99-.27-2.06-.47-3.03-.49-.49,0-.53,0-.93.29-.41.3-.85.66-1.3,1.01-2.72,2.17-5.78,3.99-9.17,5.1-2.65.81-5.32,1.17-8.02,1.19-.59,0-1.18.02-1.77-.02-2.21-.18-2.89-.54-3.19-1.43-.07-.2-.17-.39-.2-.57-.08-.59.87-.98,2.36-.94,2.23.02,4.51-.05,6.71-.36,1.1-.16,2.18-.37,3.19-.69.52-.16.97-.33,1.49-.55.52-.22,1.03-.47,1.53-.72,1.49-.77,2.91-1.67,4.28-2.71l2.17-1.7.38-.27c.16-.12.38-.22.57-.33.4-.2.82-.31,1.29-.35.75-.05,1.22-.01,1.76.05v.08Z"/><path class="cls-4" d="M250.9,364.58c2.21.64,4.41,1.31,6.65,2.29.56.25,1.13.54,1.72.88.31.21.58.35.91.62l.47.39c.17.18.34.38.5.57.84,1.3,1.23,2.36,1.67,3.47.61,1.6,1.22,3.15,1.69,4.75.83,2.82,1.54,5.64,2.18,8.48.66,2.83,1.21,5.69,1.73,8.55.42,2.55.97,5.08,1.31,7.63.47,3.25,1,6.58.39,9.91-.25,1.03-.32.88-.77.03-.52-.85-1.26-2.36-1.63-4.17-1.23-6.45-2.45-12.9-3.69-19.42-.74-3.92-2.04-7.88-3.33-11.69-.35-1.06-.73-2.08-1.13-3.1l-.63-1.46-.34-.62c-.05-.09-.12-.24-.16-.28-.04-.04-.07-.08-.1-.12-.49-.47-1.5-.98-2.45-1.37-.98-.42-2.03-.76-3.08-1.1-2.6-.81-5.28-1.5-7.98-2.12-4.09-.93-8.22-1.83-12.34-2.56-3.2-.57-6.39-.91-9.59-1.42-.71-.11-1.4-.2-2.11-.35-2.62-.54-3.4-1.08-3.69-2.15-.07-.24-.18-.49-.19-.72-.05-.75,1.14-1.09,3.05-.89,5.67.57,11.61,1.63,17.6,2.8,4.45.88,8.9,1.87,13.38,3.06l-.02.09Z"/><path class="cls-4" d="M198.87,460.14c-2.02-.59-3.74-1.79-5.1-3.14-1.33-1.39-2.38-2.93-3.29-4.5-1.74-3.18-2.96-6.5-3.93-9.86-.71-2.45-1.36-4.9-1.84-7.38-.84-4.38-1.4-8.78-1.78-13.19-.09-1.1-.17-2.21-.24-3.32l-.12-1.66-.05-.83-.03-.58c-.01-.22-.02-.44-.02-.65v-.65c-.01-.21-.03-.44.05-.6l.3-1.01c.02-.08.06-.15.1-.23.06-.05.16-.08.24-.11l.48-.15c.17-.04.32-.12.52-.13h.6c1.92.08,2.71.2,3.85.3,3.85.37,7.73.46,11.55.41,2.45-.02,4.89-.24,7.33-.4,2.45-.13,4.86-.41,7.34-.51.81.11,1.17.18,1.17.25,0,.08-.35.23-.92.7-1.14.87-3.43,2.23-6.33,2.78-.64.13-1.28.25-1.93.34l-1.94.19c-1.3.11-2.59.18-3.89.23-1.3.04-2.59.07-3.89.05-1.29-.04-2.58-.09-3.87-.17-1.29-.08-2.57-.18-3.85-.3l-1.91-.19c-.58-.06-1.5-.15-1.38-.16-.08-.02-.18-.07-.28-.07-.03.07-.05.15-.07.26-.03-.12-.03.77-.03,1.35,0,.63,0,1.26.02,1.89.23,6.04,1.25,12.29,2.59,18.29.74,3.3,1.66,6.56,2.9,9.66.61,1.55,1.32,3.06,2.16,4.46.81,1.43,1.81,2.71,2.95,3.78,1.41,1.31,3.12,2.19,4.97,2.27.45.08.94-.04,1.4-.04.47-.05.92-.19,1.38-.27.44-.18.89-.31,1.32-.52.41-.25.86-.41,1.24-.72,1.22-.8,2.27-1.89,3.19-3.11.93-1.2,1.73-2.53,2.42-3.93,1.41-2.78,2.41-5.78,3.19-8.8,1.22-4.72,1.68-9.52,2.04-14.32.07-1.06.09-2.1.15-3.16.09-1.97.18-3.26.41-4.16.2-.9.48-1.42.9-1.87.18-.2.35-.47.53-.6.54-.47,1.4,1.23,1.61,4.26.16,4.48-.09,9.06-.87,13.67-.77,4.6-1.92,9.24-3.79,13.74-1.42,3.31-3.21,6.64-6.09,9.36-1.43,1.34-3.21,2.5-5.23,3.08-.5.14-1.02.23-1.53.34-.51.1-1.03.09-1.55.13-.51.06-1.06-.05-1.58-.09-.54-.03-1.05-.17-1.56-.33v-.08Z"/><path class="cls-4" d="M107.64,106.52c-2.8-1.37-5.62-2.72-8.46-4.04-1.03-.48-2.11-.87-3.14-1.36-3.65-1.7-7.29-3.43-10.96-5.09-1.63-.74-3.3-1.4-4.96-2.04-1.05-.45-2.11-.87-3.15-1.33-.53-.22-1.04-.48-1.53-.78l-.74-.44c-.24-.16-.45-.39-.67-.61-.49-.66-.45-.52.29-.72.77-.28,2.09-.56,3.35-.18l3.31,1.13c1.09.41,2.14.91,3.21,1.38,2.12.96,4.23,1.97,6.33,3.06,2.5,1.3,5.25,2.31,7.87,3.48,2.89,1.29,5.75,2.63,8.62,3.98l5.27,2.52c2.66,1.27,5.3,2.62,7.96,3.85,2.06.97,4.15,1.78,6.22,2.69.46.2.91.37,1.36.59.83.41,1.36.72,1.66,1.07.14.18.24.36.3.55.05.21.06.42.06.63,0,.19.04.38.02.51-.03.24-.25.34-.7.47-.46.16-1.01.06-1.64-.17-3.78-1.39-7.55-3.21-11.37-5.03-2.83-1.35-5.66-2.74-8.52-4.07l.03-.07Z"/><path class="cls-4" d="M406.44,360.32c-.59,1.13-1.35,2.16-2.3,3.05-.95.87-2.11,1.62-3.48,1.9-.97.2-1.92.27-2.88.07-1.66-.34-3.29-1.41-3.99-3.02-.35-.79-.48-1.65-.43-2.46.06-.81.24-1.55.48-2.27.45-1.26,1.05-2.46,1.86-3.51.98-1.35,2.51-2.47,4.21-2.63.53-.04.45.05.05.25-.4.17-1.05.61-1.69,1.17-1.14,1.01-2,2.33-2.56,3.76-.53,1.41-.89,3-.58,4.22.1.37.26.74.51,1.04.23.32.52.6.87.82.68.46,1.54.64,2.39.67.97,0,1.84-.21,2.65-.75.81-.52,1.52-1.27,2.09-2.12.7-1.05,1.21-2.25,1.44-3.48.16-.93.18-1.9-.12-2.72-.27-.83-.88-1.47-1.7-1.77-.63-.24-1.35-.28-2.06-.2-.18.02-.36.06-.54.08l-.27.04-.2.06c-.26.09-.51.24-.76.43-.22.16-.42.38-.66.59-.86.81-1.31,1.07-1.95.81-.15-.06-.3-.1-.43-.18-.41-.27-.34-.89.25-1.71.45-.6.98-1.26,1.82-1.79.42-.26.92-.48,1.47-.6.5-.09.86-.14,1.33-.17.88-.06,1.85.04,2.83.4.97.35,1.92,1.07,2.53,1.99.45.68.72,1.43.87,2.15.13.73.15,1.44.1,2.12-.13,1.36-.51,2.63-1.1,3.78l-.06-.02Z"/><path class="cls-4" d="M275.4,201.37c-.26.75-.42,1.51-.5,2.3-.1.9.08,1.78.46,2.59.18.38.47.74.79,1.02.35.3.7.54,1.15.66.58.16,1.23.08,1.75-.22,1.19-.66,1.38-2.04,1.52-3.26.12-1.1.02-2.21-.2-3.29-.09-.44-.48-.9-.86-1.12-.4-.24-.99-.33-1.44-.19s-.89.43-1.12.86c-.24.46-.29.93-.19,1.44.04.19.07.39.1.59l-.07-.5c.11.79.11,1.59,0,2.38l.07-.5c-.05.35-.1.71-.22,1.04l.19-.45c-.04.09-.08.18-.14.26l.29-.38s-.07.08-.12.12l.38-.29s-.06.04-.09.06l.45-.19s-.07.03-.1.03l.5-.07s-.09.01-.13,0l.5.07s-.1-.02-.14-.04l.45.19c-.07-.03-.13-.07-.2-.11l.38.29c-.13-.1-.24-.22-.35-.35l.29.38c-.1-.14-.19-.29-.26-.45l.19.45c-.08-.2-.13-.4-.16-.62l.07.5c-.04-.35-.03-.7.01-1.05l-.07.5c.08-.57.23-1.13.42-1.68.15-.44.04-1.05-.19-1.44s-.67-.76-1.12-.86c-1.04-.24-1.97.31-2.31,1.31h0Z"/><path class="cls-4" d="M286.63,202.67c-.12.79-.2,1.57-.12,2.37.09.84.21,1.77.65,2.52.34.57.85.99,1.49,1.19.37.11.84.1,1.21,0,.39-.11.77-.33,1.05-.62.59-.59.87-1.47.98-2.28.07-.49.14-.97.12-1.46s-.09-1.02-.21-1.52c-.11-.45-.47-.89-.86-1.12s-.99-.33-1.44-.19c-.99.32-1.55,1.28-1.31,2.31.04.18.08.36.1.54l-.07-.5c.06.46.06.91,0,1.37l.07-.5c-.05.4-.14.79-.29,1.16l.19-.45c-.04.1-.09.19-.15.28l.29-.38c-.04.05-.09.1-.14.14l.38-.29s-.05.04-.08.05l.45-.19s-.09.03-.14.04l.5-.07s-.06,0-.1,0l.5.07s-.06-.01-.09-.02l.45.19s-.08-.04-.12-.07l.38.29c-.05-.04-.09-.09-.13-.14l.29.38c-.06-.09-.11-.17-.15-.27l.19.45c-.16-.39-.23-.82-.29-1.24l.07.5c-.08-.61-.08-1.23,0-1.84l-.07.5c0-.07.02-.14.03-.21.08-.25.09-.5.03-.75-.01-.25-.09-.48-.22-.7-.23-.39-.67-.76-1.12-.86-.48-.11-1.02-.09-1.44.19-.38.25-.79.65-.86,1.12h0Z"/><path class="cls-4" d="M273.38,230.56c.85-.05,1.69-.07,2.54,0,.17.01.33.03.5.05.23.02-.41-.07-.1-.01.09.01.17.03.26.04.32.06.64.13.96.22.13.04.27.08.4.13.07.03.14.05.21.08.27.1-.04,0-.13-.06.25.15.53.25.78.4s.48.32.72.48c-.03-.02-.33-.26-.15-.11.06.05.11.09.17.14.12.11.24.22.36.33.67.63,1.82.71,2.47,0s.71-1.8,0-2.47c-1.1-1.03-2.37-1.82-3.81-2.26-1.66-.51-3.45-.56-5.17-.45-.91.06-1.79.76-1.75,1.75.04.9.77,1.81,1.75,1.75h0Z"/><path class="cls-4" d="M274.94,202.85s.06-.05.09-.07l-.38.29c.33-.25.69-.44,1.07-.6l-.45.19c.83-.34,1.71-.56,2.6-.68l-.5.07c.41-.05.81-.09,1.23-.09.98,0,1.92-.86,1.88-1.88s-.82-1.88-1.88-1.88-2.14.17-3.16.44c-1.16.31-2.23.79-3.16,1.55-.35.28-.55.89-.55,1.33,0,.46.2,1.01.55,1.33s.83.57,1.33.55c.53-.02.92-.22,1.33-.55h0Z"/><path class="cls-4" d="M294.13,201.21c-1.77-.97-3.7-1.51-5.71-1.66-.46-.03-1.01.23-1.33.55s-.57.86-.55,1.33.18.99.55,1.33.81.51,1.33.55c.25.02.51.04.76.08l-.5-.07c1.01.14,2,.41,2.94.8l-.45-.19c.36.16.72.33,1.07.52.43.24.96.32,1.44.19.43-.12.91-.46,1.12-.86.46-.88.25-2.06-.67-2.57h0Z"/><path class="cls-4" d="M288.75,207.53c0,.48.08.95.12,1.43l.13.71c.03.24.07.49.13.72.09.35.23.67.35,1.02.17.62.39,1.23.63,1.85.28.6.56,1.21.88,1.81.27.54.67,1,1.04,1.46.27.27.48.61.68.95.22.32.45.65.65,1,.12.22,0,.3-.28.31-.28,0-.81-.01-1.26-.22l-.62-.27c-.11-.04-.2-.09-.31-.13l-.25-.2c-.34-.26-.64-.56-.95-.86-.59-.61-1.17-1.27-1.51-2.09-.44-.95-1.1-1.82-1.54-2.8-.46-1.09-.79-2.24-.93-3.41-.11-.72-.15-1.44-.18-2.15-.04-1.08.05-2.16.11-3.22.02-.83-.08-1.65-.06-2.49.01-.18,0-.36.03-.54.23-.64.53-.79,1.29-.73.17.01.34.02.51.04.55.09.97.46,1.16.96.45,1.44.27,2.69.23,3.99-.04.95-.07,1.91.03,2.85h-.08Z"/><path class="cls-4" d="M279,187.71c-1.52-.83-3.31-1.19-4.99-1.54s-3.26-.58-4.89-.89c-.87-.16-1.88.24-2.09,1.19-.19.84.25,1.91,1.19,2.09,1.59.3,3.18.55,4.76.87.87.18,1.73.37,2.58.6.39.11.77.22,1.15.36.08.03.15.06.23.09.34.12-.11-.04-.11-.05,0-.01.42.2.45.22.78.43,1.89.22,2.33-.61s.22-1.87-.61-2.33h0Z"/><path class="cls-4" d="M288.76,192.51c2.27-.5,4.57-.79,6.84-1.29.87-.19,1.46-1.25,1.19-2.09-.3-.91-1.16-1.39-2.09-1.19-2.27.5-4.57.79-6.84,1.29-.87.19-1.46,1.25-1.19,2.09.3.91,1.16,1.39,2.09,1.19h0Z"/><path class="cls-4" d="M216.31,296.31l3.51,4.42c.29.37.94.57,1.38.57.48,0,1.05-.21,1.38-.57s.59-.86.57-1.38l-.07-.52c-.09-.33-.26-.62-.5-.86-1.17-1.47-2.34-2.95-3.51-4.42-.29-.37-.94-.57-1.38-.57-.48,0-1.05.21-1.38.57s-.59.86-.57,1.38l.07.52c.09.33.26.62.5.86h0Z"/><path class="cls-4" d="M299.32,318.15c1.75-.9,3.49-1.8,5.24-2.7.91-.47,1.25-1.82.7-2.67-.6-.93-1.7-1.2-2.67-.7-1.75.9-3.49,1.8-5.24,2.7-.91.47-1.25,1.82-.7,2.67.6.93,1.7,1.2,2.67.7h0Z"/><path class="cls-4" d="M251.78,336.07c.5.32.98.66,1.45,1.03l-.38-.29c1.29,1.01,2.46,2.17,3.48,3.45.28.35.9.55,1.33.55.46,0,1.01-.2,1.33-.55s.57-.83.55-1.33l-.07-.5c-.09-.32-.25-.59-.48-.83-1.48-1.88-3.3-3.48-5.31-4.77-.83-.53-2.11-.2-2.57.67-.49.93-.21,2,.67,2.57h0Z"/><path class="cls-4" d="M191.94,344.34c1.99-1.04,3.98-2.08,5.97-3.11.87-.45,1.2-1.74.67-2.57-.57-.89-1.63-1.16-2.57-.67-1.99,1.04-3.98,2.08-5.97,3.11-.87.45-1.2,1.74-.67,2.57.57.89,1.63,1.16,2.57.67h0Z"/><path class="cls-4" d="M240.03,384.04c.8.78,1.55,1.61,2.23,2.5l-.3-.39c.58.75,1.11,1.53,1.6,2.34.25.42.69.76,1.17.9s1.09.07,1.5-.2c.88-.57,1.26-1.73.7-2.67-1.14-1.91-2.54-3.68-4.14-5.23-.36-.35-.87-.57-1.38-.57-.48,0-1.05.21-1.38.57-.71.77-.78,2,0,2.76h0Z"/><path class="cls-4" d="M347.37,288.32c1.63,1.25,3.26,2.51,4.9,3.76.37.29,1.07.31,1.5.2.45-.12.94-.47,1.17-.9.24-.45.36-1,.2-1.5l-.2-.47c-.17-.29-.41-.53-.7-.7-1.63-1.25-3.26-2.51-4.9-3.76-.37-.29-1.07-.31-1.5-.2-.45.12-.94.47-1.17.9-.24.45-.36,1-.2,1.5l.2.47c.17.29.41.53.7.7h0Z"/><path class="cls-4" d="M350.39,333.91c1.14-1.62,2.28-3.25,3.42-4.87.27-.38.31-1.01.19-1.44s-.46-.91-.86-1.12c-.44-.23-.96-.35-1.44-.19s-.83.44-1.12.86c-1.14,1.62-2.28,3.25-3.42,4.87-.27.38-.31,1.01-.19,1.44s.46.91.86,1.12c.44.23.96.35,1.44.19s.83-.44,1.12-.86h0Z"/><path class="cls-4" d="M336.77,134.88c-.13.28-.49.26-.96.09-.15-.05-.44-.36-.43-.47.03-.21.05-.41.1-.6.03-.11.9-1.53,1.15-2.05.25-.51.58-.93.94-1.32.72-.81,1.42-1.64,2.16-2.44.17-.17.37-.31.58-.43.75-.4,1.36-.95,1.92-1.56.09-.1.21-.18.23-.36.03-.3,1.68-1.81,1.96-1.93.69-.3,1.32-.67,1.98-1,.09-.05.15-.15.31-.1.38.12.51-.07.7-.19.26-.17.53-.33.83-.44.15-.05.39,0,.61.03.19.02.47.47.47.55,0,.21.24.33.39.49.05.05.11.12.15.17.07.11-.72,1.89-.87,2-.02.02-.47.47-.95.96-.47.49-.96,1-1.05,1.11-.09.12-.26.16-.41.22-.07.03-1.44,1.54-1.5,1.59-.34.24-.58.61-1.09.67-.1.01-.15.08-.21.14-.52.5-1.11.92-1.73,1.32-.31.21-.57.47-.86.7-.05.04-.13.05-.19.08-.08.04-.17.07-.23.12-.67.57-1.4,1.07-2.04,1.67-.15.13-1.09.55-1.25.72-.09.09-.66.13-.7.24Z"/><path class="cls-4" d="M346.4,142.64c-.18.2-.44-.06-.76-.55-.1-.16-.24-.67-.2-.77.08-.18.16-.37.26-.52.06-.08,1.18-.83,1.55-1.12.36-.28.75-.47,1.15-.63.81-.33,1.64-.55,2.47-.8.19-.05.38-.07.58-.04.68.08,1.32-.05,1.96-.26.1-.03.22-.04.3-.19.13-.25,1.89-.62,2.13-.56.6.15,1.19.22,1.78.37.08.02.17-.04.26.11.21.36.38.28.56.28.25.01.5.05.75.15.13.05.26.26.4.42.12.15.11.72.08.79-.09.19.02.45.05.69.01.08.02.18.03.25,0,.14-1.24,1.26-1.38,1.27-.02,0-.5.14-1.01.28-.51.13-1.03.27-1.14.31-.11.05-.24-.03-.36-.07-.06-.02-1.56.45-1.62.45-.33,0-.62.17-1-.09-.07-.05-.14-.03-.2-.01-.54.13-1.11.1-1.68.11-.29,0-.56.1-.84.15-.05,0-.11-.03-.17-.04-.07-.01-.14-.04-.2-.02-.65.17-1.38.06-2.02.28-.15.04-.97-.13-1.13-.06-.1.03-.53-.29-.6-.2Z"/><path class="cls-4" d="M341.87,155.62c-.31-.02-.31-.41-.16-1.02.05-.19.37-.67.48-.69.22-.05.44-.1.63-.11.12,0,1.59.54,2.12.7.5.15.95.39,1.38.64.88.51,1.76,1.01,2.6,1.57.19.12.35.27.5.45.5.62,1.12,1.06,1.8,1.43.11.06.21.15.38.12.29-.05,2.02,1.09,2.18,1.31.41.57.87,1.06,1.31,1.59.06.08.18.09.16.27-.04.41.16.47.32.61.21.19.42.39.58.64.08.13.08.38.1.6.02.2-.34.64-.41.66-.2.08-.26.36-.38.56-.04.07-.09.16-.13.21-.09.12-2.02-.05-2.16-.17-.02-.01-.56-.32-1.13-.64-.57-.32-1.15-.66-1.28-.71-.14-.06-.2-.21-.29-.34-.04-.06-1.75-1-1.8-1.05-.29-.27-.69-.42-.83-.9-.03-.09-.1-.13-.17-.17-.57-.38-1.05-.89-1.55-1.36-.26-.24-.56-.42-.83-.64-.05-.04-.07-.12-.11-.17-.05-.07-.09-.15-.15-.2-.66-.5-1.22-1.13-1.93-1.55-.16-.1-.7-.9-.9-.99-.11-.06-.19-.64-.32-.64Z"/></svg>