<svg id="Layer_1" data-name="Layer 1" xmlns="http://www.w3.org/2000/svg" width="520" height="520" viewBox="0 0 520 520"><defs><style>.cls-1,.cls-4{fill:#221f1f;}.cls-1,.cls-2{opacity:0.25;}.cls-3{fill:#232020;}.cls-5{opacity:0.6;}</style></defs><title>Notioly v2</title><g id="_79.Login" data-name="79.Login"><path class="cls-1" d="M258.89,333c.44,0-5.82,3-5.82,3s-23.72-.31-23.72-.31c-.44,0,6.33-2.68,6.33-2.68S258.89,333,258.89,333Z"/><g class="cls-2"><path class="cls-3" d="M237.21,144.67l-18.83,85.05c-3.12,14.18-6.12,28.48-8.37,42.9-.55,3.6-1.11,7.2-1.61,10.81l-1.69,12.19-.37,2.7-.09.67c0,.05,0,.12,0,.16h.51l1.36,0,5,.08,5.45.08,10.89.16,87.1,1,43.56.44,21.78.16,10.9.06h8.19l3.52,0,1.17-.3a2.65,2.65,0,0,0,1-.69,6.42,6.42,0,0,0,1.3-2.2c.21-.48.25-.63.35-.88l.24-.68.43-1.34c.53-1.78,1-3.52,1.44-5.26.88-3.49,1.67-7,2.44-10.44,1.52-7,2.92-13.92,4.28-20.89q4-20.93,7.58-41.91c2.37-14,4.61-28,6.56-42.09.95-7.06,1.89-14.09,2.44-21.31.07-.9.12-1.81.16-2.74l0-1.41v-.73l0-.82a8.41,8.41,0,0,0-.45-2.54,3.28,3.28,0,0,0-.62-1.05c-.06-.08-.17-.13-.22-.21l-.29-.13-.57-.24c-.75-.32-1.57-.69-2.27-1l-1.41-.27c-3.74-.69-7.28-1-10.86-1.31-14.27-1.11-28.44-1.51-42.63-1.91s-28.37-.57-42.56-.73q-42.54-.47-85.07-.28c-7.93,0-7.9,5.72,0,5.65q42.49-.13,85,.27c14.16.16,28.32.38,42.47.74s28.31.8,42.31,1.89c3.48.29,7,.62,10.24,1.22l1.19.23h.09l0,.5V149l0,1.24c0,.84-.08,1.7-.14,2.56-.53,6.92-1.46,13.95-2.4,20.94-1.94,14-4.18,28-6.53,41.92s-4.87,27.89-7.57,41.77c-1.35,6.94-2.74,13.87-4.25,20.76-.76,3.44-1.54,6.88-2.4,10.26-.43,1.69-.87,3.38-1.37,5l-.38,1.19-.19.57-.14.36h0l-1.92,0h-8.14l-10.88-.05-21.77-.17-43.54-.43-87.09-1-16.81-.25,1.31-9.37c.5-3.59,1-7.16,1.6-10.73,2.22-14.27,5.18-28.4,8.31-42.58l18.83-85C244.08,139.77,238.54,138.56,237.21,144.67Z"/></g><path class="cls-4" d="M82.82,274.36c0,.12-.19.07-.4-.07a.67.67,0,0,1-.21-.28.93.93,0,0,1,0-.24s.4-.49.52-.65a2.16,2.16,0,0,1,.41-.39l.9-.74a1.64,1.64,0,0,1,.22-.14,2.63,2.63,0,0,0,.73-.5.19.19,0,0,0,.09-.12,3.85,3.85,0,0,1,.75-.63c.25-.11.47-.23.71-.35a.14.14,0,0,1,.11,0c.12,0,.17,0,.24-.08a2.69,2.69,0,0,1,.29-.16.66.66,0,0,1,.2,0c.07,0,.14.14.14.16s.06.1.1.14l0,.05a2.8,2.8,0,0,1-.37.67s-.68.66-.75.74a.32.32,0,0,1-.14.08s-.55.54-.58.56-.22.22-.39.24l-.08,0a5,5,0,0,1-.64.47,3.76,3.76,0,0,0-.31.25s-.05,0-.07,0l-.08,0c-.25.21-.52.38-.75.61,0,.05-.39.19-.44.25S82.83,274.31,82.82,274.36Z"/><path class="cls-4" d="M87,274.18c.11,0,.06.16-.09.37a.85.85,0,0,1-.28.21h-.22s-.44-.34-.59-.44a2.32,2.32,0,0,1-.35-.35c-.2-.26-.42-.52-.63-.78a.76.76,0,0,1-.12-.19,2,2,0,0,0-.43-.64s0-.07-.1-.08a2.89,2.89,0,0,1-.56-.64c-.08-.22-.18-.42-.28-.63,0,0,0-.05,0-.1a.23.23,0,0,0-.06-.22,1.05,1.05,0,0,1-.13-.26s0-.12,0-.18.14-.13.16-.13.1-.07.14-.11l.05,0a2.46,2.46,0,0,1,.61.3l.65.64a.27.27,0,0,1,.07.13s.48.47.49.49.19.19.21.35,0,0,0,.06a4.39,4.39,0,0,1,.4.56,2.88,2.88,0,0,0,.22.27.14.14,0,0,1,0,.06.2.2,0,0,0,0,.08,8.06,8.06,0,0,0,.52.64s.16.35.22.39S87,274.17,87,274.18Z"/><path class="cls-4" d="M84.5,275.16c0,.11-.1.16-.35.18a1,1,0,0,1-.34-.09,1.51,1.51,0,0,1-.12-.2s0-.59,0-.78a2.33,2.33,0,0,1,.07-.53c.08-.35.15-.71.23-1.06a.85.85,0,0,1,.09-.22,2.49,2.49,0,0,0,.24-.79c0-.05,0-.09,0-.14a3.2,3.2,0,0,1,.18-.9c.13-.22.22-.44.33-.66,0,0,0-.07.06-.1s.12-.12.14-.19a1.23,1.23,0,0,1,.13-.29.65.65,0,0,1,.15-.12s.19,0,.2,0,.11,0,.17.05h.06a3.08,3.08,0,0,1,.14.71s-.12.88-.12,1a.35.35,0,0,1-.06.14s-.09.72-.09.75,0,.28-.16.4,0,0,0,.08a4.41,4.41,0,0,1-.2.71c0,.12,0,.25-.08.37l0,.06s0,.05,0,.08a8.44,8.44,0,0,0-.2.87c0,.07-.18.37-.19.45S84.48,275.12,84.5,275.16Z"/><path class="cls-4" d="M87.52,271.84c.09-.06.16.07.21.32a.72.72,0,0,1,0,.34.66.66,0,0,1-.16.17s-.54.1-.71.14a2,2,0,0,1-.49,0l-1,0a.85.85,0,0,1-.22,0,2.19,2.19,0,0,0-.76-.11.17.17,0,0,0-.13,0,3,3,0,0,1-.85,0c-.21-.09-.43-.14-.65-.21,0,0-.07,0-.09,0a.23.23,0,0,0-.2-.1,1.57,1.57,0,0,1-.29-.08.71.71,0,0,1-.13-.12.25.25,0,0,1,0-.21s0-.11,0-.18v-.06a2.77,2.77,0,0,1,.63-.26l.91-.05a.4.4,0,0,1,.15,0s.66,0,.69,0a.78.78,0,0,1,.39.08.12.12,0,0,0,.08,0,3.92,3.92,0,0,1,.68.07c.12,0,.23,0,.35,0l.06,0,.08,0a5.77,5.77,0,0,0,.83,0c.06,0,.36.12.43.11S87.48,271.87,87.52,271.84Z"/><path class="cls-4" d="M94.78,213.92c0,.11-.19.07-.4-.07a.73.73,0,0,1-.21-.28.88.88,0,0,1,0-.24c0-.05.39-.49.52-.65a2.59,2.59,0,0,1,.41-.4l.9-.73a1,1,0,0,1,.22-.14,2.63,2.63,0,0,0,.73-.5s.08-.06.09-.12a3.53,3.53,0,0,1,.75-.63l.71-.35s0-.05.11,0,.17,0,.24-.08a1.64,1.64,0,0,1,.29-.16.66.66,0,0,1,.2,0c.07,0,.14.14.13.16s.07.1.11.14l0,.05a3,3,0,0,1-.37.67s-.68.65-.75.74a.36.36,0,0,1-.15.08l-.57.56a.92.92,0,0,1-.39.24s-.06,0-.08.05a4.7,4.7,0,0,1-.64.46,3.88,3.88,0,0,0-.31.26l-.07,0-.09,0a8.55,8.55,0,0,0-.74.61s-.39.18-.45.25S94.79,213.87,94.78,213.92Z"/><path class="cls-4" d="M99,213.73c.11,0,.06.17-.09.38a.41.41,0,0,1-.51.19s-.44-.33-.58-.43a2,2,0,0,1-.35-.36l-.64-.77a1.28,1.28,0,0,1-.11-.2,2.27,2.27,0,0,0-.43-.63s0-.07-.11-.08a3.2,3.2,0,0,1-.55-.65c-.08-.21-.19-.42-.28-.63,0,0,0,0,0-.09a.22.22,0,0,0-.06-.22,1.05,1.05,0,0,1-.13-.26.54.54,0,0,1,0-.18.24.24,0,0,1,.16-.13c.06,0,.1-.07.14-.11l0,0a2.81,2.81,0,0,1,.61.29s.58.59.65.65a.27.27,0,0,1,.07.13s.48.46.49.48.19.19.21.35a.1.1,0,0,0,0,.07,5.66,5.66,0,0,1,.4.56,2.88,2.88,0,0,0,.22.27s0,0,0,.06,0,.06,0,.07a8.22,8.22,0,0,0,.52.65c.05,0,.16.34.21.39S98.94,213.72,99,213.73Z"/><path class="cls-4" d="M96.46,214.72c0,.11-.1.16-.35.17a.81.81,0,0,1-.34-.08,1.67,1.67,0,0,1-.13-.2s0-.59,0-.78a1.83,1.83,0,0,1,.07-.53c.08-.35.15-.71.23-1.06A1.09,1.09,0,0,1,96,212a2.41,2.41,0,0,0,.24-.79.17.17,0,0,0,0-.14,3.13,3.13,0,0,1,.18-.89c.13-.22.22-.45.33-.67,0,0,0-.07.06-.09s.11-.12.14-.19a1.08,1.08,0,0,1,.13-.29s.09-.08.15-.12.18,0,.2,0,.11,0,.17,0h.06a3,3,0,0,1,.14.71s-.12.88-.12,1a.46.46,0,0,1-.07.14s-.08.72-.09.74,0,.29-.15.41,0,.05,0,.08a6.29,6.29,0,0,1-.2.71,2.21,2.21,0,0,0-.08.37l0,.06a.59.59,0,0,0,0,.08,8.41,8.41,0,0,0-.19.87c0,.07-.18.36-.19.44S96.44,214.67,96.46,214.72Z"/><path class="cls-4" d="M99.47,211.4c.1-.06.17.07.22.32a.73.73,0,0,1,0,.34l-.16.16s-.54.11-.71.15a2.1,2.1,0,0,1-.5,0l-1,0a.87.87,0,0,1-.22,0,2.18,2.18,0,0,0-.76-.1.2.2,0,0,0-.13,0,2.7,2.7,0,0,1-.85,0c-.21-.09-.43-.14-.65-.21,0,0-.07,0-.1,0s-.13-.1-.2-.11a1,1,0,0,1-.28-.07.53.53,0,0,1-.13-.13s0-.19,0-.2,0-.12,0-.18v-.06a2.38,2.38,0,0,1,.63-.26l.91,0a.22.22,0,0,1,.14,0s.67,0,.7,0,.26,0,.39.08,0,0,.08,0a5.25,5.25,0,0,1,.68.08c.12,0,.23,0,.35,0l.06,0,.08,0a7.69,7.69,0,0,0,.83,0c.06,0,.36.12.43.11S99.44,211.43,99.47,211.4Z"/><path class="cls-4" d="M186.16,176.44c0,.12-.19.07-.4-.07a.67.67,0,0,1-.21-.28,1.75,1.75,0,0,1,0-.24s.4-.49.52-.65a2.65,2.65,0,0,1,.42-.4l.89-.73a1.64,1.64,0,0,1,.22-.14,2.63,2.63,0,0,0,.73-.5.24.24,0,0,0,.1-.12,3.52,3.52,0,0,1,.74-.63c.25-.11.48-.23.71-.35,0,0,.06-.05.11,0s.17,0,.24-.08a2.11,2.11,0,0,1,.3-.16.64.64,0,0,1,.2,0c.06,0,.13.14.13.16s.06.1.11.14l0,0a3.46,3.46,0,0,1-.37.67s-.69.66-.76.74a.32.32,0,0,1-.14.08s-.55.54-.57.56-.22.22-.4.24l-.08,0a5,5,0,0,1-.64.47,3.76,3.76,0,0,0-.31.25s-.05,0-.07,0a.2.2,0,0,0-.08,0,8.55,8.55,0,0,0-.74.61c0,.05-.4.19-.45.25S186.18,176.39,186.16,176.44Z"/><path class="cls-4" d="M190.37,176.26c.11,0,.06.16-.09.37a.83.83,0,0,1-.27.21h-.23s-.44-.34-.58-.44a1.66,1.66,0,0,1-.35-.35l-.64-.78a.76.76,0,0,1-.12-.19,2,2,0,0,0-.43-.64s0-.07-.1-.08a2.62,2.62,0,0,1-.55-.64c-.09-.22-.19-.42-.29-.63,0,0,0-.05,0-.1s0-.16-.06-.22a1.58,1.58,0,0,1-.13-.26.38.38,0,0,1,0-.18c0-.06.13-.13.15-.13s.1-.07.14-.11l0,0a2.52,2.52,0,0,1,.62.3s.57.58.64.64a.27.27,0,0,1,.07.13s.48.47.5.49.19.19.2.34,0,.05,0,.07a4.39,4.39,0,0,1,.4.56c.07.1.15.18.22.27l0,.06s0,.06,0,.08a7.81,7.81,0,0,0,.53.64s.15.35.21.39S190.33,176.25,190.37,176.26Z"/><path class="cls-4" d="M187.84,177.24c0,.11-.09.16-.35.18a.87.87,0,0,1-.33-.09,1.67,1.67,0,0,1-.13-.2s0-.59,0-.78a2.33,2.33,0,0,1,.07-.53c.08-.35.15-.71.23-1.06a.85.85,0,0,1,.09-.22,2.9,2.9,0,0,0,.25-.79c0-.05,0-.09,0-.14a2.88,2.88,0,0,1,.18-.9c.12-.22.22-.44.33-.66,0,0,0-.08.05-.1s.12-.12.14-.19.08-.19.13-.29a.65.65,0,0,1,.15-.12c.05,0,.19,0,.2,0s.11,0,.17.05h.06a2.63,2.63,0,0,1,.14.71s-.12.88-.12,1a.35.35,0,0,1-.06.14s-.08.72-.09.74a.8.8,0,0,1-.16.41s0,0,0,.08a3.58,3.58,0,0,1-.2.71c0,.12-.05.25-.08.37l0,.06s0,0,0,.08a8.44,8.44,0,0,0-.2.87c0,.07-.18.36-.18.45S187.83,177.19,187.84,177.24Z"/><path class="cls-4" d="M190.86,173.92c.09-.06.16.07.21.32a.41.41,0,0,1-.19.51s-.53.1-.71.14a2,2,0,0,1-.49,0l-1,0a.63.63,0,0,1-.22-.05,2.44,2.44,0,0,0-.76-.1s-.08,0-.12,0a3,3,0,0,1-.85,0c-.22-.09-.44-.14-.66-.21,0,0-.07,0-.09,0s-.13-.09-.2-.1a1.29,1.29,0,0,1-.28-.08c-.05,0-.09-.08-.14-.13s0-.18,0-.2,0-.12,0-.18a.13.13,0,0,1,0-.06,2.59,2.59,0,0,1,.63-.26l.91-.05s.09,0,.14,0,.66,0,.69,0,.27,0,.39.08a.13.13,0,0,0,.08,0,3.82,3.82,0,0,1,.68.07c.12,0,.24,0,.35,0l.06,0,.08,0a5.77,5.77,0,0,0,.83,0c.06,0,.36.12.43.11S190.82,174,190.86,173.92Z"/><g class="cls-5"><path class="cls-4" d="M141.62,242.25c0,.08-.11.05-.25,0a.44.44,0,0,1-.12-.17.77.77,0,0,1,0-.15s.26-.31.34-.41a1.57,1.57,0,0,1,.27-.25l.58-.48.14-.09a2,2,0,0,0,.47-.32.17.17,0,0,0,.06-.08,2.73,2.73,0,0,1,.48-.41l.46-.23s0,0,.06,0,.11,0,.16-.05a1.18,1.18,0,0,1,.19-.11h.12s.08.08.08.09,0,.06.07.09l0,0a2.11,2.11,0,0,1-.25.42l-.49.47s-.06,0-.09.06l-.37.35c-.08.06-.14.14-.25.16a.09.09,0,0,0,0,0,2.86,2.86,0,0,1-.41.3l-.21.17,0,0s0,0-.05,0a4.54,4.54,0,0,0-.48.39s-.25.12-.29.16S141.63,242.22,141.62,242.25Z"/><path class="cls-4" d="M144.34,242.16c.06,0,0,.1-.05.23s-.14.13-.17.12H144s-.28-.22-.37-.28a2.39,2.39,0,0,1-.22-.23l-.41-.5a.57.57,0,0,1-.08-.13,1.36,1.36,0,0,0-.28-.41.1.1,0,0,0-.06,0,1.77,1.77,0,0,1-.36-.41,3.75,3.75,0,0,0-.19-.41.06.06,0,0,1,0-.06.11.11,0,0,0,0-.13l-.09-.17a.4.4,0,0,1,0-.11s.08-.09.1-.08.06,0,.08-.07l0,0a2.07,2.07,0,0,1,.39.2s.36.38.41.41a.73.73,0,0,1,0,.09s.3.3.31.31a.48.48,0,0,1,.13.23l0,0a3,3,0,0,1,.26.36c0,.06.1.11.14.17s0,0,0,0,0,0,0,.05.21.29.34.41.1.22.14.25S144.31,242.15,144.34,242.16Z"/><path class="cls-4" d="M142.7,242.78c0,.07-.06.1-.21.11a.37.37,0,0,1-.2,0,.57.57,0,0,1-.08-.13s0-.37,0-.5a2,2,0,0,1,0-.34c.06-.22.1-.45.15-.68a.59.59,0,0,1,.06-.14,1.65,1.65,0,0,0,.15-.51.14.14,0,0,0,0-.09,1.92,1.92,0,0,1,.11-.58c.08-.14.14-.29.21-.43s0-.05,0-.06.07-.08.09-.13a1.42,1.42,0,0,1,.08-.18.34.34,0,0,1,.09-.08s.11,0,.12,0,.07,0,.1,0h0a2,2,0,0,1,.08.45s-.08.57-.09.63,0,.06,0,.1-.06.46-.07.47a.48.48,0,0,1-.09.26.07.07,0,0,0,0,.06,3.81,3.81,0,0,1-.13.45,1,1,0,0,0-.05.24l0,0s0,0,0,.05a5.59,5.59,0,0,0-.12.56s-.12.24-.12.29S142.69,242.75,142.7,242.78Z"/><path class="cls-4" d="M144.66,240.66c.06,0,.11,0,.14.19a.46.46,0,0,1,0,.21l-.1.09a4.16,4.16,0,0,1-.46.09,1.15,1.15,0,0,1-.32,0l-.64,0-.15,0a1.35,1.35,0,0,0-.49-.07.13.13,0,0,0-.08,0,2.06,2.06,0,0,1-.55,0l-.42-.12s0,0-.06,0-.08,0-.13-.06a.61.61,0,0,1-.18,0,.28.28,0,0,1-.09-.07.18.18,0,0,1,0-.13s0-.06,0-.1v0a1.45,1.45,0,0,1,.4-.15l.59,0s.06,0,.09,0,.43,0,.45,0a.55.55,0,0,1,.25,0s0,0,.05,0a3.29,3.29,0,0,1,.44,0h.27l.05,0a4.61,4.61,0,0,0,.53,0,2.29,2.29,0,0,0,.28.07S144.64,240.68,144.66,240.66Z"/></g><g class="cls-5"><path class="cls-4" d="M154.16,379.47c0,.08-.12,0-.25,0s-.13-.14-.12-.17a.77.77,0,0,1,0-.15s.26-.31.34-.41a1.27,1.27,0,0,1,.27-.25L155,378l.14-.09a2.44,2.44,0,0,0,.47-.32.17.17,0,0,0,.06-.08,2.09,2.09,0,0,1,.48-.4c.16-.07.3-.16.45-.24s0,0,.07,0,.11,0,.15-.05a1.18,1.18,0,0,1,.19-.11h.13s.08.08.08.09,0,.06.06.09l0,0a2.72,2.72,0,0,1-.25.42l-.49.47s-.06,0-.09.06-.36.34-.37.35a.63.63,0,0,1-.26.16s0,0,0,0a2.4,2.4,0,0,1-.41.3l-.2.17,0,0-.06,0a5.71,5.71,0,0,0-.47.39s-.25.12-.29.16S154.17,379.44,154.16,379.47Z"/><path class="cls-4" d="M156.87,379.38c.07,0,0,.1-.05.23a.46.46,0,0,1-.16.13l-.14,0s-.28-.22-.37-.28a1.19,1.19,0,0,1-.22-.23l-.42-.5a.54.54,0,0,1-.07-.13,1.86,1.86,0,0,0-.28-.41.13.13,0,0,0-.07-.05,2,2,0,0,1-.35-.41c-.06-.14-.13-.27-.19-.4s0,0,0-.07,0-.1,0-.13a.7.7,0,0,1-.09-.17.4.4,0,0,1,0-.11s.08-.08.09-.08.06,0,.09-.07l0,0a1.74,1.74,0,0,1,.38.2s.37.38.42.41a.25.25,0,0,1,0,.09l.32.31a.48.48,0,0,1,.13.23s0,0,0,0,.17.24.26.36a2.09,2.09,0,0,0,.14.17.06.06,0,0,1,0,0l0,.05a4.35,4.35,0,0,0,.34.41s.1.22.13.26S156.84,379.37,156.87,379.38Z"/><path class="cls-4" d="M155.24,380c0,.07-.06.1-.21.11a.43.43,0,0,1-.21-.05.54.54,0,0,1-.07-.13s0-.37,0-.5a1.4,1.4,0,0,1,.05-.34l.15-.68a.58.58,0,0,1,.05-.14,1.67,1.67,0,0,0,.16-.51.1.1,0,0,0,0-.09,2.3,2.3,0,0,1,.12-.58,4.14,4.14,0,0,0,.2-.43s0-.05,0-.06.07-.08.09-.13a.71.71,0,0,1,.08-.18.18.18,0,0,1,.09-.08s.11,0,.12,0,.06,0,.1,0h0a2,2,0,0,1,.07.45s-.08.57-.08.63a.18.18,0,0,1,0,.1s-.05.46-.06.47,0,.19-.1.26,0,0,0,.06a3.74,3.74,0,0,1-.12.45,2.1,2.1,0,0,0-.06.24.05.05,0,0,1,0,0s0,0,0,0a5.66,5.66,0,0,0-.13.56c0,.05-.11.24-.12.29S155.23,380,155.24,380Z"/><path class="cls-4" d="M157.2,377.88c.06,0,.1,0,.14.19a.46.46,0,0,1,0,.21l-.1.09s-.35.07-.46.09a1.16,1.16,0,0,1-.32,0l-.65,0-.14,0a1.39,1.39,0,0,0-.49-.07.11.11,0,0,0-.08,0,2,2,0,0,1-.55,0l-.42-.12s-.05,0-.06,0-.09-.05-.13-.06a.61.61,0,0,1-.18-.05.28.28,0,0,1-.09-.07.12.12,0,0,1,0-.12s0-.07,0-.11v0a1.66,1.66,0,0,1,.41-.15l.59,0s.06,0,.09,0,.43,0,.44,0a.48.48,0,0,1,.26.05h.05a3.49,3.49,0,0,1,.44.05h.22l0,0h.05a4.78,4.78,0,0,0,.53,0c.05,0,.24.08.28.07S157.17,377.9,157.2,377.88Z"/></g><path class="cls-4" d="M159.71,230.36c0,.07-.12,0-.25,0a.44.44,0,0,1-.12-.17.68.68,0,0,1,0-.15s.26-.31.34-.41a2.2,2.2,0,0,1,.27-.26c.2-.15.39-.31.58-.47a.67.67,0,0,1,.14-.09,1.73,1.73,0,0,0,.47-.33s.05,0,.06-.07a2.73,2.73,0,0,1,.48-.41c.16-.07.3-.15.45-.23s0,0,.07,0,.11,0,.16-.05l.19-.1s.08,0,.12,0,.08.08.08.09,0,.06.06.09l0,0a2.43,2.43,0,0,1-.25.42l-.49.47-.09,0-.37.36c-.08.06-.14.14-.25.16a.09.09,0,0,0,0,0c-.13.11-.27.2-.41.3s-.14.11-.21.16l0,0,0,0c-.16.14-.34.24-.48.39s-.25.13-.29.17S159.72,230.33,159.71,230.36Z"/><path class="cls-4" d="M162.42,230.26c.07,0,0,.11,0,.24a.59.59,0,0,1-.17.12h-.14s-.28-.22-.37-.29a.8.8,0,0,1-.22-.23c-.14-.17-.28-.33-.41-.5a.5.5,0,0,1-.08-.12,1.49,1.49,0,0,0-.28-.41s0,0-.06-.05a1.63,1.63,0,0,1-.36-.42,2.93,2.93,0,0,0-.19-.4s0,0,0-.06a.14.14,0,0,0,0-.14l-.09-.16a.48.48,0,0,1,0-.12s.08-.08.1-.08,0,0,.08-.06l0,0a2.07,2.07,0,0,1,.39.2s.36.38.41.42a.56.56,0,0,1,0,.08s.3.31.31.32.12.12.13.22l0,.05a2.27,2.27,0,0,1,.26.35,1.24,1.24,0,0,0,.14.18l0,0,0,0c.12.13.21.29.34.41s.1.22.14.25S162.4,230.26,162.42,230.26Z"/><path class="cls-4" d="M160.79,230.88c0,.07-.06.11-.21.12a.48.48,0,0,1-.2-.05l-.08-.13s0-.38,0-.5a1.86,1.86,0,0,1,0-.34c.06-.23.1-.46.15-.68a.94.94,0,0,1,.06-.15,1.77,1.77,0,0,0,.15-.51.1.1,0,0,0,0-.09,2.5,2.5,0,0,1,.12-.58c.08-.14.14-.28.21-.42s0-.05,0-.06.07-.08.09-.13a.77.77,0,0,1,.08-.19.31.31,0,0,1,.09-.07s.11,0,.12,0,.07,0,.1,0h0a1.91,1.91,0,0,1,.08.45s-.08.56-.09.63a.18.18,0,0,1,0,.09s0,.46-.06.48a.51.51,0,0,1-.09.26.06.06,0,0,0,0,.05,3.47,3.47,0,0,1-.13.46,2.1,2.1,0,0,0-.06.24s0,0,0,0,0,0,0,0a3.73,3.73,0,0,0-.12.56,2.52,2.52,0,0,0-.12.29S160.78,230.86,160.79,230.88Z"/><path class="cls-4" d="M162.75,228.77c.06,0,.1,0,.14.19a.43.43,0,0,1,0,.2.47.47,0,0,1-.1.1,4.62,4.62,0,0,1-.46.08,1.15,1.15,0,0,1-.32,0l-.64,0-.15,0a1.61,1.61,0,0,0-.49-.06.12.12,0,0,0-.08,0,1.7,1.7,0,0,1-.55,0l-.42-.13a.07.07,0,0,1-.06,0,.13.13,0,0,0-.13-.06l-.18-.05s-.06,0-.09-.08,0-.11,0-.12,0-.07,0-.11v0a1.45,1.45,0,0,1,.4-.16l.59,0,.09,0s.43,0,.45,0a.45.45,0,0,1,.25.05h.05a3.29,3.29,0,0,1,.44.05h.26l.05,0a4.87,4.87,0,0,0,.54,0,2.3,2.3,0,0,0,.28.06S162.73,228.78,162.75,228.77Z"/><path class="cls-4" d="M119.81,368c0,.07-.12,0-.25,0a.48.48,0,0,1-.13-.17.66.66,0,0,1,0-.15s.26-.31.34-.41a1.66,1.66,0,0,1,.27-.26l.57-.47.15-.09a2.1,2.1,0,0,0,.46-.32s0,0,.06-.08a2.48,2.48,0,0,1,.49-.41l.45-.23s0,0,.07,0a.19.19,0,0,0,.15-.06l.19-.1s.08,0,.13,0,.08.08.07.09,0,.06.07.09l0,0a2.62,2.62,0,0,1-.24.42s-.45.42-.49.47a.2.2,0,0,1-.09.05l-.38.36c-.08.06-.14.14-.25.16s0,0,0,0a2.4,2.4,0,0,1-.41.3l-.2.17,0,0-.05,0c-.15.13-.33.24-.48.38s-.25.13-.28.17S119.82,367.94,119.81,368Z"/><path class="cls-4" d="M122.52,367.88c.07,0,0,.1,0,.23a.51.51,0,0,1-.16.12h-.15l-.36-.28a1.67,1.67,0,0,1-.23-.23c-.13-.17-.27-.34-.41-.5a.54.54,0,0,1-.07-.13,1.49,1.49,0,0,0-.28-.41.18.18,0,0,0-.07-.05,1.82,1.82,0,0,1-.35-.42c-.06-.13-.13-.26-.19-.4s0,0,0-.06,0-.1,0-.13a.7.7,0,0,1-.09-.17.24.24,0,0,1,0-.12s.08-.08.09-.07.06,0,.09-.07l0,0a1.16,1.16,0,0,1,.38.2l.41.41a.16.16,0,0,1,0,.09l.31.31c0,.07.13.13.14.22a.08.08,0,0,0,0,.05,2.36,2.36,0,0,1,.26.36l.15.17v0s0,0,0,.05a4.23,4.23,0,0,0,.33.41s.11.22.14.25S122.49,367.87,122.52,367.88Z"/><path class="cls-4" d="M120.89,368.5c0,.07-.06.1-.22.11a.39.39,0,0,1-.2-.05.42.42,0,0,1-.07-.13s0-.38,0-.5a1.33,1.33,0,0,1,0-.34l.15-.68a.88.88,0,0,1,.05-.15,1.54,1.54,0,0,0,.16-.5.33.33,0,0,0,0-.1,1.94,1.94,0,0,1,.12-.57c.07-.14.13-.29.2-.43s0-.05,0-.06.07-.08.08-.13a1.42,1.42,0,0,1,.08-.18.34.34,0,0,1,.09-.08.15.15,0,0,1,.12,0s.07,0,.11,0h0a1.57,1.57,0,0,1,.08.45s-.08.57-.08.63,0,.06,0,.09-.06.46-.06.48,0,.19-.1.26l0,.05a2.42,2.42,0,0,1-.13.46c0,.08,0,.16,0,.24s0,0,0,0l0,0c0,.19-.1.37-.12.56s-.12.24-.12.29S120.88,368.47,120.89,368.5Z"/><path class="cls-4" d="M122.84,366.38c.07,0,.11,0,.14.19a.36.36,0,0,1,0,.21.87.87,0,0,1-.11.09,3.9,3.9,0,0,1-.45.09,1.16,1.16,0,0,1-.32,0l-.65,0a.32.32,0,0,1-.14,0,1.65,1.65,0,0,0-.49-.06.15.15,0,0,0-.09,0,2,2,0,0,1-.54,0c-.14-.05-.28-.08-.43-.12s0,0-.06,0-.08-.05-.12-.06a.59.59,0,0,1-.19-.05s0,0-.08-.07,0-.12,0-.13,0-.07,0-.1v0a1.66,1.66,0,0,1,.41-.15l.58,0s.06,0,.09,0l.45,0a.56.56,0,0,1,.25.05h0a3.12,3.12,0,0,1,.44.05h.27l.05,0a4.7,4.7,0,0,0,.53,0s.23.07.28.07S122.82,366.39,122.84,366.38Z"/><path class="cls-4" d="M212.25,232.37l4.87-23.91c.58-2.92,1.15-5.83,1.73-8.73l6.56-30.67c1-4.54,1.88-9.11,2.75-13.63,1.14-5.8,2.15-11.66,3.64-17.39.93-3.56,2.49,1.54,1.13,8.21-2.4,11.83-4.92,23.62-7.67,35.48-1.65,7.09-3,14.55-4.51,21.84q-2.43,12-4.88,24.08c-1,4.94-2,9.88-2.91,14.83-1.44,7.49-2.88,15-4.14,22.49-.48,2.9-.92,5.78-1.35,8.65s-.79,5.75-1.18,8.63c-.17,1.27-.34,2.51-.5,3.79-.64,4.74-1,6.22-1.89,7.14a5,5,0,0,1-.58.61c-.61.38-.78-1.62-.44-5.12,1-10.4,2.81-21.25,4.75-32.11,1.43-8.06,3-16.14,4.55-24.2Z"/><path class="cls-4" d="M414.67,286c3.12-14,5.73-28.11,8.26-42.24s4.86-28.32,7.05-42.51c1.6-10.36,3-20.74,4.39-31.11.59-4.58,1.16-9.16,1.64-13.73.23-2.29.45-4.58.63-6.87s.31-4.58.25-6.78c0-.27,0-.54,0-.8l0-.37,0-.13a.38.38,0,0,0-.11-.23,1.39,1.39,0,0,0-.29-.1,22,22,0,0,0-3.15-.76c-2.22-.39-4.49-.71-6.77-.95-4.56-.52-9.16-.9-13.76-1.23-18.4-1.28-36.87-2-55.33-2.58-16.38-.52-32.87-.84-49.14-1.09-20.9-.3-41.89-.37-62.77-.82-13-.26,3.51-2.77,27.61-2.51q32,.35,64.09,1.16c21.39.58,42.81,1.3,64.33,2.6,6.43.41,12.93.84,19.47,1.41,3.27.31,6.55.62,9.85,1.09l2.48.37,2.5.51a11.88,11.88,0,0,1,1.3.39l.88.29a1.78,1.78,0,0,1,.78.58,2.77,2.77,0,0,1,.4.91,4.19,4.19,0,0,1,.11.51c0,.2.05.32.06.43a12.38,12.38,0,0,1,.09,1.33,95.33,95.33,0,0,1-.49,10.06c-.29,3.31-.64,6.61-1,9.9-.75,6.59-1.62,13.16-2.53,19.68q-3,21.52-6.65,43c-2.39,14.29-4.91,28.56-7.67,42.79-1.12,5.73-2.28,11.46-3.55,17.16-.63,2.86-1.29,5.71-2,8.55-.37,1.42-.76,2.83-1.2,4.25-.23.71-.47,1.42-.76,2.14s-.86,2.15-2,2l-4.85,0-4.62,0-9.24-.06-80.89-.95-61.83-.48-13.54-.11c-16.94-.2-22.33-.47-26-1.24-.83-.18-1.92-.36-2.4-.53-1.61-.57,5.3-.91,17.71-.88,36.8.06,75.61.5,114.57.95l35.39.4,17.72.17,8.85.06h4.43l4,0s0,0,0,0v0l.09-.2c.23-.53.44-1.13.64-1.74.4-1.23.75-2.51,1.09-3.8.68-2.57,1.29-5.18,1.88-7.8Z"/><path class="cls-4" d="M322.29,292.24l51.23.92,25.62.45,1,0c.06,0,.08-.06.11-.11l0-.07.12-.27a28,28,0,0,0,1-2.89c.6-2,1.13-4.06,1.64-6.12,1-4.13,1.94-8.29,2.83-12.45,2.6-12.18,4.86-24.43,7.1-36.67q3.94-21.59,7.37-43.27c1.13-7.23,2.21-14.47,3.16-21.71.48-3.62.92-7.25,1.28-10.87.18-1.82.34-3.63.43-5.43.05-.9.08-1.8.06-2.67l0-.65c0-.19,0-.47,0-.53s-.05-.41-.26-.43l-1-.31-1.3-.27c-.87-.19-1.76-.33-2.66-.45-1.78-.28-3.59-.46-5.4-.66-3.62-.37-7.26-.66-10.91-.91-7.28-.51-14.59-.87-21.89-1.2-19.46-.85-39-1.32-58.38-1.67l-74.61-1c-15.47-.25,4.17-2.51,32.81-2.17,24,.29,47.95.72,72,1.44,12,.36,24,.81,36.06,1.43,6,.32,12,.67,18.07,1.16,1.5.11,3,.25,4.52.39s3,.29,4.53.48,3,.38,4.54.61c.76.09,1.54.29,2.3.44a9.43,9.43,0,0,1,1.18.27l1.48.49a1.92,1.92,0,0,1,1.05,1.35,7.32,7.32,0,0,1,.17.89c0,.2,0,.4,0,.59,0,.77,0,1.49,0,2.22-.05,1.44-.15,2.87-.27,4.29-.7,7.67-1.78,15.33-2.87,23s-2.32,15.45-3.57,23.2c-2.51,15.5-5.21,31.07-8.14,46.45-1.61,8.46-3.29,16.9-5.12,25.32-.92,4.22-1.87,8.42-3,12.61a61.08,61.08,0,0,1-1.92,6.29l-.17.4c-.06.13-.1.26-.22.48a3.07,3.07,0,0,1-.75,1,.92.92,0,0,1-.55.24,2.51,2.51,0,0,1-.62.06l-1,0-3.22-.05-51.63-.9-63.54-1.09-48.15-.81-12-.2-6.53-.11h-.94s0-.08,0-.12l.15-1.06.28-1.93.44-3c1.15-7.93,2.51-15.8,3.88-23.65,4.35-24.38,9-48.2,13.83-72.18,1.07-5.28,2.13-10.45,3.22-15.77,4.13-19.72,5.67-25.94,7.21-30,.36-.93.77-2.17,1-2.7.9-1.78-.48,6.32-3.41,20.77-4.36,21.43-8.81,43.44-13.14,65.8q-3.25,16.77-6.3,33.77c-1,5.67-2,11.35-2.88,17-.48,2.84-.9,5.7-1.3,8.55l-.31,2.14s0,0,0,0l2.75,0,103.39,1.68Z"/><path class="cls-4" d="M415,301.69c-3.55,1.52-9.61-.11-9.62-.41a29.3,29.3,0,0,0,6.32-1c4.43-1.66,30.11-156.15,26.21-160-.83-.84-.19-.32-2.52-1,3.73,0,4.63,1.21,5.53,1.85C445.18,144.21,417.74,300.51,415,301.69Z"/><path class="cls-4" d="M437.69,167.4c.61-4.42,1.19-8.84,1.67-13.27.24-2.21.46-4.42.61-6.62.08-1.1.14-2.2.15-3.28,0-.54,0-1.07,0-1.57,0-.22-.06-.52-.08-.61s0-.09-.07-.11a5,5,0,0,0-2-1.15,9.85,9.85,0,0,0-2.55-.3l.31-2.36c.41.11.81.21,1.2.29l.37.07a2.19,2.19,0,0,1,.57.16,3.24,3.24,0,0,1,.9.73,2.91,2.91,0,0,1,.65,1.67,11.14,11.14,0,0,1,.09,1.25c0,.81,0,1.59,0,2.36-.06,1.55-.18,3.08-.3,4.61-.26,3-.59,6.09-.94,9.12-.77,6.48-1.59,13-2.51,19.4-3.31,22.73-7.13,45.37-11.2,68-1.82,10-3.66,20.1-5.62,30-1,5.23-2.09,10.46-3.33,15.68a65.93,65.93,0,0,1-2.23,7.81c-.06.16-.14.33-.21.5a4.33,4.33,0,0,1-.31.58,1.85,1.85,0,0,1-.52.59,2.11,2.11,0,0,1-.71.3,16.31,16.31,0,0,1-2.09.44c-1.35.21-2.69.34-4,.45l-.05-.86c.08,0,.26-.22.38-.46l.11-.19h0l.14.06a3,3,0,0,0,.36.12c.25.08.52.15.79.22.54.13,1.09.23,1.65.31a16.91,16.91,0,0,0,3.32.19c1.43-.08,2.18-.29,2.5-.26s.22.27-.4.67a8.28,8.28,0,0,1-3.39,1,16.9,16.9,0,0,1-2.69,0c-.5,0-1-.09-1.56-.17l-.83-.16a4.61,4.61,0,0,1-.46-.13l-.28-.09-.2-.1-.2-.15,0,0a1.63,1.63,0,0,1-.17-.21,1.32,1.32,0,0,1-.19-.59l0-1,1.07-.17c1.43-.23,3-.47,4.57-.82l.57-.14.27-.07.19-.06s0,0,0,0,0,.06.07-.16a25.19,25.19,0,0,0,.83-2.39c.92-3.09,1.67-6.32,2.4-9.53s1.41-6.46,2.08-9.7c1.33-6.48,2.59-13,3.82-19.5q3.69-19.56,7.13-39.29c2.74-15.74,5.2-32.19,7.4-48.38.68-5,1.32-10,1.87-15,.27-2.5.52-5,.7-7.51.1-1.25.17-2.5.2-3.74,0-.61,0-1.23,0-1.82a7.23,7.23,0,0,0-.08-.85,1.24,1.24,0,0,0-.06-.27.37.37,0,0,0-.09-.16,1.24,1.24,0,0,0-.22-.19l-.12,0-.3,0c-.47-.09-.92-.2-1.36-.32l-6.61-1.79,6.84.06a12,12,0,0,1,3.11.38,6.64,6.64,0,0,1,2.23,1.11l.64.5a1.94,1.94,0,0,1,.69,1.27,8.35,8.35,0,0,1,.13,1.05c0,.67,0,1.32,0,2,0,1.29-.1,2.56-.2,3.83-.19,2.54-.46,5.06-.74,7.57-1.28,11-2.93,22-4.61,32.92-2.58,16.57-5.41,33.17-8.24,49.57-2.2,12.74-4.32,25.25-6.66,37.82-.52,2.77-1,5.48-1.57,8.27-2.07,10.33-3.06,13.59-4.26,15.62a4.41,4.41,0,0,1-.9,1.24c-.06,0-.09,0-.09,0s0,.09,0,0a.41.41,0,0,0-.09-.12s0,0,0,0a.62.62,0,0,1,0-.17c.07-.39.19-1,.36-1.91.36-1.88.94-4.8,1.67-8.56,2.19-11.19,4.24-22.75,6.32-34.46s4.14-23.61,6.14-35.54c3-17.71,5.88-35.52,8.32-53.34Z"/><path class="cls-4" d="M414,302.67c-.34,1.51-.64,4.61-1.34,5.1-12.87,8.89-88.75,42.51-88.75,42.51l-191.95-2-1.15-4.63c26.29.34,139.37.59,193.21,1.85Z"/><path class="cls-3" d="M409.78,303.1l-86.08,41-23.82-.45-24.16-.31-48.31-.44L129,342.22l1.86,7.46,146.43,1.53,36.34.38,9.08.09,1.39,0c.19,0,.35-.13.53-.19l.33-.14.52-.24,2.07-.92,4.15-1.85,16.57-7.48c11-5,22-10.09,33-15.3,5.47-2.61,10.94-5.23,16.36-8,2.72-1.34,5.41-2.77,8.11-4.18l4-2.22c.67-.35,1.33-.8,2-1.2l1-.62.49-.31a2.48,2.48,0,0,0,.75-.69,2.26,2.26,0,0,0,.32-.54c.06-.14.1-.26.15-.39s.13-.46.17-.66a8.58,8.58,0,0,0,.16-1.1,7.7,7.7,0,0,0,0-1.64c-.12-.86-.38-1.32-.73-1.4s-.79.28-1.19,1.07a10.18,10.18,0,0,0-.59,1.47l-.29.9-.15.43-.07.17s0,0,0,0l-1.49.93c-.64.38-1.23.79-1.9,1.14L404.38,311c-2.68,1.39-5.33,2.81-8.05,4.14-5.39,2.72-10.85,5.34-16.31,7.94q-16.38,7.8-32.94,15.28l-16.55,7.47-4.15,1.85-2.07.92-.71.32h-.88l-9.08-.09-36.34-.38-144.25-1.51-.45-1.79,94.79.63,48.3.43,24.14.32,24.48.45L411,305.65C415.79,303.38,414.57,300.82,409.78,303.1Z"/><path class="cls-3" d="M325.41,347.92l88.82-41.71c1-.46-.59-3.91-1.6-3.41l-88.82,41.72C323,344.89,324.61,348.31,325.41,347.92Z"/><path class="cls-4" d="M207.38,332.82a30.09,30.09,0,0,1-6.52-1c-2.07-.49-4.08-1-6.09-1.63l-11.92-3.58c-1.45-.42-2.9-.8-4.34-1.14-.71-.16-1.43-.32-2.13-.43a7.71,7.71,0,0,0-1.9-.15,12.27,12.27,0,0,0-3.42,1c-1.19.49-2.38,1-3.57,1.62l-7.17,3.54a125.92,125.92,0,0,1-14.9,6.17,101.38,101.38,0,0,1-13.84,3.63,81.46,81.46,0,0,1-9.08,1.21,49.93,49.93,0,0,1-9.15-.07c-1.9-.18-1.6-.67,0-1.17.8-.26,1.93-.5,3.28-.79a39.74,39.74,0,0,1,4.61-.53,90.1,90.1,0,0,0,17.85-3,116,116,0,0,0,17.18-6.26c3.37-1.49,6.7-3.25,10.12-5a44.84,44.84,0,0,1,5.39-2.4,10.07,10.07,0,0,1,3.21-.6,18.61,18.61,0,0,1,3.06.44c4.18.95,8.14,2.24,12.15,3.44s8,2.42,12,3.32a34.78,34.78,0,0,0,3.69.64,12.06,12.06,0,0,0,1.78.09,1.87,1.87,0,0,0,1.05-.26.66.66,0,0,0,.16-.85,2.08,2.08,0,0,0-.29-.45A6.42,6.42,0,0,0,208,328a20.13,20.13,0,0,0-2.9-2.28A81.13,81.13,0,0,0,195,320.17a106,106,0,0,0-10.7-4.39,42.21,42.21,0,0,0-4.23-1.24,10.44,10.44,0,0,0-2-.31c-.67,0-1.43,0-2.14.12a50.77,50.77,0,0,0-8.57,1.56l-3.76,1c-4.75,1.24-6.39,1.33-7.55.82a4.53,4.53,0,0,1-.76-.36c-.54-.49,1.33-1.19,4.73-2.16,5-1.41,10.36-3.21,16.18-3.56.36,0,.72,0,1.09-.05l.54,0a5.35,5.35,0,0,1,.68,0,15,15,0,0,1,2.33.4c1.44.35,2.81.78,4.17,1.24,2.7.92,5.35,2,8,3.1a104,104,0,0,1,11.41,5.73,31.62,31.62,0,0,1,5.41,3.9,7.74,7.74,0,0,1,1.38,1.66,4.15,4.15,0,0,1,.57,1.36,3.35,3.35,0,0,1,0,1.41,3.25,3.25,0,0,1-1.88,2,6.43,6.43,0,0,1-1.34.36l-.6.07h-.47Z"/><path class="cls-4" d="M223,324.56c.07,0,.1-.09.06-.21a5.89,5.89,0,0,0-.83-1.46l-.25-.29a1.5,1.5,0,0,0-.31-.31l-.77-.69c-.51-.45-1.12-.89-1.67-1.33-2.33-1.74-4.78-3.39-7.27-5-1.83-1.14-3.71-2.2-5.57-3.29-3.27-1.91-6.59-3.77-10-5.45a70.86,70.86,0,0,0-10.43-4.33c-.79-.19-1.6-.47-2.39-.58a17,17,0,0,0-2.41-.24,37.05,37.05,0,0,0-5,.21c-4.2.46-8.31,1.87-12.66,2.44-1.36.16-1.27-.36-.27-1.14a14.37,14.37,0,0,1,5.3-2.49,51.59,51.59,0,0,1,6.68-1.32,38.94,38.94,0,0,1,6.91-.18l1.83.26a12.12,12.12,0,0,1,1.73.41,28.7,28.7,0,0,1,3.29,1,64.28,64.28,0,0,1,6.24,2.72c4.83,2.38,9.82,4.88,14.55,7.67,2.58,1.56,5.16,3.13,7.66,4.84.63.41,1.25.85,1.87,1.29s1.24.87,1.84,1.35,1.22.93,1.81,1.47a9.24,9.24,0,0,1,1.71,1.86,9.75,9.75,0,0,1,.72,1.37l.17.43.13.51a2.74,2.74,0,0,1,0,1,2.3,2.3,0,0,1-1.22,1.57,5.43,5.43,0,0,1-1.68.55,12.76,12.76,0,0,1-5.88-.6,67.34,67.34,0,0,1-7.92-3.08c-2.56-1.14-5.09-2.31-7.64-3.39a76.8,76.8,0,0,0-12-4.07c-.89-.21-1.77-.37-2.67-.53-1.66-.3-2.75-.44-3.51-.61a3.23,3.23,0,0,1-1.59-.75,3.3,3.3,0,0,1-.5-.48c-.38-.51,1.1-1.13,3.81-1a43.83,43.83,0,0,1,11.71,2.73c3.8,1.37,7.51,3,11.19,4.67,2.72,1.2,5.44,2.43,8.16,3.39a23.43,23.43,0,0,0,4,1.07,7.34,7.34,0,0,0,1.79.06,5.11,5.11,0,0,0,.87-.15l.23-.07h0Z"/><path class="cls-4" d="M93.16,353.85c1.51-1,3-2,4.5-3,.54-.37,1-.81,1.57-1.18,1.9-1.31,3.82-2.61,5.61-4.06.81-.63,1.53-1.36,2.28-2a26.79,26.79,0,0,1,2.84-2.69c.33-.24.65.11.77.69a2.51,2.51,0,0,1-.43,2,28.79,28.79,0,0,1-2.83,3,30.52,30.52,0,0,1-3.28,2.5c-1.38.91-2.63,2.09-4,3.07s-3,2.1-4.53,3.13l-2.8,1.89c-1.4,1-2.83,1.9-4.18,2.91-1,.79-2,1.7-2.93,2.56-.21.19-.42.37-.65.55-.85.62-1.24.68-1.8.33-.12-.08-.26-.15-.37-.24-.37-.3-.27-.88.23-1.52a16,16,0,0,1,2.54-2.59c.93-.79,1.9-1.55,2.9-2.27,1.48-1.07,3-2.08,4.5-3.12Z"/><path class="cls-4" d="M75.44,358.42c-.81-.8-1.58-1.65-2.33-2.5s-1.5-1.71-2.23-2.58c-.54-.63-1.11-1.23-1.61-1.89a80,80,0,0,1-4.9-7.24l-2.05-3.29a12.09,12.09,0,0,1-2.08-4.58c-.08-.54.52-.64,1.26-.46a3.23,3.23,0,0,1,2.07,1.35c1.39,2.79,3.06,5.57,4.69,8.43a37.6,37.6,0,0,0,3.61,4.82c.69.86,1.42,1.69,2.13,2.55l2.23,2.46c1,.95,1.89,2,2.93,2.86A40.44,40.44,0,0,0,84,362.22a20.94,20.94,0,0,0,2,1.2l2.11,1c.3.16.64.24,1,.38,1.16.51,1.44.85,1.41,1.63a4.41,4.41,0,0,1,0,.52c-.1.56-.78.74-1.75.45a21.35,21.35,0,0,1-4.2-1.78c-.68-.38-1.32-.81-2-1.23s-1.29-.88-1.9-1.36a33.6,33.6,0,0,1-2.69-2.21l-1.3-1.15-1.24-1.21Z"/><path class="cls-4" d="M99.73,311.64a242.7,242.7,0,0,1,35.07-15.91c1.11-.38,2.21-.8,3.32-1.17l3.36-1.07c2.22-.76,4.5-1.35,6.77-1.94a107.51,107.51,0,0,1,24.61-3.48c1,0,2.06-.08,3.14,0s2.13.17,3.17.32a47.13,47.13,0,0,1,6.15,1.36A86.14,86.14,0,0,1,197,294.1a158,158,0,0,1,19.26,10.54,94.66,94.66,0,0,1,11.39,8.28,17.36,17.36,0,0,1,1.31,1.27c.08.09.26.28.41.46l.41.54a3.07,3.07,0,0,1,.51,1.13.88.88,0,0,1-.38,1l-.48.35a1.55,1.55,0,0,1-.55.31l-.65.24-.32.12c-.1,0-.17,0-.25.07-.32.05-.64.15-1,.17a14.06,14.06,0,0,1-7.15-1.45c-1.34-.57-1.83-.84-1.75-1s.84-.23,2.08,0a26,26,0,0,0,4.84.54,7.52,7.52,0,0,0,1.41-.16,5.13,5.13,0,0,0,.7-.19l.35-.11c.1,0,0,0,.07-.05s0-.06,0-.08l0,0h0l-.13-.14a52.11,52.11,0,0,0-5.26-4.37c-1.88-1.39-3.81-2.72-5.76-4q-5.88-3.85-12.09-7.21a120.85,120.85,0,0,0-12.73-6,56.44,56.44,0,0,0-13.39-3.72,23.63,23.63,0,0,0-4.14-.17l-4.28.12c-1.43.11-2.86.27-4.3.41-.71.08-1.43.13-2.15.23l-2.14.35a129.87,129.87,0,0,0-17,3.91c-6.12,1.8-12.11,4-18,6.46s-11.7,5.18-17.41,8.1q-10.53,5.41-20.64,11.6c-5.12,3.09-10.14,6.37-15.12,9.68S62.74,338.11,58,341.64c-7.43,5.49-14.46,11.19-21.46,17l-4.58,3.88c-5.74,4.85-7.66,6.3-9.36,6.79a7,7,0,0,1-1.13.31c-.89,0,1.13-2.26,5.24-6a418.27,418.27,0,0,1,40.08-31.57q7.95-5.52,16.19-10.68t16.75-9.85Z"/><path class="cls-4" d="M69.37,364.31c-4,3-8,6.14-12.15,9.13-2.07,1.49-4.16,3-6.37,4.36a37.66,37.66,0,0,1-3.5,2,13.86,13.86,0,0,1-2.1.86,5.78,5.78,0,0,1-1.53.27,3.53,3.53,0,0,1-1.24-.16,3.6,3.6,0,0,1-.8-.38,3.41,3.41,0,0,1-.72-.7,3.27,3.27,0,0,1-.6-1.48c0-.19,0-.39,0-.57l0-.45a7,7,0,0,1,.39-1.52,6.57,6.57,0,0,1,.65-1.24l.38-.54c.13-.17.26-.31.4-.47a16.6,16.6,0,0,1,3.38-2.78c1.15-.75,2.3-1.39,3.42-2s2.26-1.19,3.18-1.77a109.52,109.52,0,0,0,12-8.61,19.16,19.16,0,0,0,3.32-3.68l.31-.47.22-.47a4.12,4.12,0,0,0,.32-.88l0-.11h0l.2,0,.07,0,.15,0a1.54,1.54,0,0,0,.3,0h.32a.69.69,0,0,0,.2,0,1.82,1.82,0,0,0,.32-.06s.14-.08.09,0h0a.36.36,0,0,0-.06.11.53.53,0,0,0,0,.12c0,.05,0,.15,0,.22a.89.89,0,0,0,0,.23v.28a2.93,2.93,0,0,0,.08.67s0,0,0,0l-.14,0a4.18,4.18,0,0,0-.45.18,36.28,36.28,0,0,0-4.45,2.59c-1.5,1-3,2-4.5,3.07-3.7,2.58-7.36,5.25-11.06,7.9L46,370.49c-1.58,1.11-3.16,2.2-4.66,3.14a15,15,0,0,1-3.78,1.87,7.65,7.65,0,0,1-2.33.23,2.2,2.2,0,0,1-.54-.13,2.52,2.52,0,0,1-.68-.51,3,3,0,0,1-.85-1.49,4.42,4.42,0,0,1,.39-2.67,11,11,0,0,1,1.69-2.69,25.92,25.92,0,0,1,3.15-3.15c.62-.55,1.28-1.09,2-1.62l1-.79.86-.66,2.59-1.88c1.73-1.24,3.48-2.44,5.22-3.63,3.48-2.39,7-4.71,10.26-7.26a22.92,22.92,0,0,0,2.24-1.93,4,4,0,0,0,.41-.46,1.5,1.5,0,0,0,.14-.18l0-.05v0a2.72,2.72,0,0,1,.25.11,1.37,1.37,0,0,0,.71.11h0l-.33.17h0l0,0s.11-.09.06,0,0,0,0,.08a.62.62,0,0,0-.08.24,1.52,1.52,0,0,0-.06.42s0,0,0,0a3.31,3.31,0,0,0-1,.28c-.41.18-.85.38-1.29.62-.87.46-1.75,1-2.61,1.55-2.37,1.53-4.69,3.22-7,4.92s-4.65,3.4-6.94,5.15-4.63,3.46-7,5.12c-1.19.83-2.39,1.65-3.63,2.43a28.75,28.75,0,0,1-4,2.16,8.65,8.65,0,0,1-1.56.51,4.77,4.77,0,0,1-1,.11,2.69,2.69,0,0,1-1.37-.39,2.2,2.2,0,0,1-.34-.28l-.16-.16a2,2,0,0,1-.31-.56,1.82,1.82,0,0,1,.12-1.3,3.82,3.82,0,0,1,.57-.88,11.61,11.61,0,0,1,1-1.13c1.39-1.35,2.81-2.53,4.24-3.72,2.84-2.37,5.64-4.76,8.56-7l8.67-6.77c1.43-1.15,2.89-2.25,4.33-3.36s2.85-2.27,4.28-3.39c1.78-1.39,2.59-2,2.72-1.74s-.42,1.22-1.55,2.87a59.49,59.49,0,0,1-5.23,6.3,86.84,86.84,0,0,1-8.55,7.72c-1.47,1.17-2.92,2.36-4.4,3.5l-4.47,3.37c-1.49,1.11-2.9,2.32-4.27,3.51-.67.59-1.34,1.2-1.89,1.78a4.42,4.42,0,0,0-.37.41l-.14.16,0,0s0,0,0,0l-.15-.1-.47-.26c-.17-.09-.24-.15-.38-.21a2.54,2.54,0,0,0-.38-.16c-.13,0-.18-.08-.28-.11s-.3-.07-.41,0h0l.52-.43h0a1.56,1.56,0,0,0,.2-.71,5.27,5.27,0,0,0,0-.89h.07l.34-.09a9.38,9.38,0,0,0,1-.42,23.87,23.87,0,0,0,2.23-1.23c1.51-.92,3-2,4.52-3,3-2.14,6-4.4,9-6.64s6-4.55,9.15-6.73c1.58-1.08,3.19-2.15,5-3.14A16,16,0,0,1,62.07,344l.52-.13a6.37,6.37,0,0,1,.63-.1,3.73,3.73,0,0,1,2,.29,3,3,0,0,1,1.17.92,2.92,2.92,0,0,1,.42.69,3,3,0,0,1,.24,1,3.34,3.34,0,0,1-.06.8,3.62,3.62,0,0,1-.52,1.27,8.67,8.67,0,0,1-1.28,1.53c-.41.38-.8.73-1.2,1.05-.78.65-1.56,1.25-2.35,1.81l-4.74,3.24c-3.13,2.13-6.26,4.21-9.33,6.36l-2,1.39-1,.71-.45.33-.13.1a13.6,13.6,0,0,0-1.15.88,5.87,5.87,0,0,0-1.08,1.14,1,1,0,0,0-.21.75.41.41,0,0,0,.58.31,16,16,0,0,0,2.35-1.46l6-4.32c2.4-1.76,4.82-3.53,7.26-5.26s4.91-3.45,7.57-5c.57-.33,1.16-.66,1.79-1,.32-.16.65-.31,1-.45a6.09,6.09,0,0,1,1.35-.37,2.7,2.7,0,0,1,1.34.12,2.07,2.07,0,0,1,.49.25,2.44,2.44,0,0,1,.5.46,2,2,0,0,1,.3.52c0,.1.08.19.11.28a1.91,1.91,0,0,1,0,.21,2.57,2.57,0,0,1,0,.71,1.85,1.85,0,0,1-.07.46l-.17.6a4.74,4.74,0,0,1-.43,1.13,10.83,10.83,0,0,1-.52,1,25.21,25.21,0,0,1-5.58,6c-2,1.68-4.15,3.18-6.28,4.62L56,369,54.42,370c-.61.41-1.18.71-1.75,1a47.85,47.85,0,0,0-6.31,3.78,6.45,6.45,0,0,0-2,2.2c-.11.18-.08.34-.15.5s0,.14,0,.11a1.8,1.8,0,0,0-.32.06l-.2,0-.19.08a.16.16,0,0,0-.09,0c-.13.1,0,0,0-.12a1,1,0,0,0,.1-.4,1.54,1.54,0,0,0,0-.3h0a2.45,2.45,0,0,0,.49-.09,16.15,16.15,0,0,0,3.09-1.47c1.05-.61,2.1-1.28,3.14-2,2.08-1.38,4.13-2.86,6.17-4.36,2.5-1.85,5-3.75,7.47-5.64s5-3.82,7.6-5.65c.33-.23.67-.46,1-.68a6.67,6.67,0,0,1,.61-.34,3.32,3.32,0,0,1,.82-.32,4.62,4.62,0,0,1,1.76-.09A2.23,2.23,0,0,1,77,357a2.13,2.13,0,0,1,.65,1.47,3.48,3.48,0,0,1-.54,1.86,6.79,6.79,0,0,1-.9,1.18,19,19,0,0,1-2,1.66c-2.54,1.93-5.09,3.71-7.64,5.53-3.86,2.75-7.74,5.48-11.5,8.31q-1.41,1.07-2.76,2.16c-.44.37-.87.74-1.27,1.12-.19.18-.39.38-.53.54l-.15.19h0l-.25-.12a2.11,2.11,0,0,0-.41-.17c-.16,0-.17-.06-.28,0h0l1-.14h0l-.12,0a.7.7,0,0,1-.17.06,1.16,1.16,0,0,0-.2.11l0,0,0,0a1.15,1.15,0,0,0,.08-.21,1.05,1.05,0,0,1,0-.18l0-.12h.05l.23,0a7,7,0,0,0,1.36-.57,29.88,29.88,0,0,0,2.89-1.8c3.82-2.67,7.48-5.69,11.2-8.62,1.85-1.47,3.72-2.93,5.64-4.35,1-.71,1.94-1.4,3-2.07.51-.32,1-.65,1.6-1a8.71,8.71,0,0,1,1.93-.78,3.08,3.08,0,0,1,1.2,0,1.92,1.92,0,0,1,1.34,1.12,2.22,2.22,0,0,1,.11,1.41,4.32,4.32,0,0,1-.35.93,12.41,12.41,0,0,1-1.83,2.45c-1.3,1.39-2.67,2.63-4,3.84-2.76,2.42-5.58,4.7-8.35,7a99,99,0,0,0-7.92,7.07,8.76,8.76,0,0,0-1.36,1.77.73.73,0,0,1-.05.12s0,0,0,0-.25-.07-.39-.08c-.49-.07-.61.12-.44,0a.59.59,0,0,0,.14-.18h0c.07-.13-.66,1.05-.35.55l0,0,0,0s0,0,0-.11a1.37,1.37,0,0,0,0-.42,3.07,3.07,0,0,0-.1-.58v-.08h0l.07,0,.18-.09a14.51,14.51,0,0,0,2-1.32c.69-.52,1.38-1.07,2.06-1.64,2.4-2,4.67-4.11,7-6.25,8.77-8,11.91-10.35,14.71-11,.61-.13,1.51-.37,1.82-.12.07,0,0,.17,0,.07s0,0,0,0a.24.24,0,0,0,0,.07.62.62,0,0,1,0,.18,1,1,0,0,0,0,.17s0,0,0,0l0,.08a17.55,17.55,0,0,1-1.42,1.49c-1.47,1.48-3.86,3.85-7,6.83L68,380.88c-2.43,2.23-4.85,4.46-7.61,6.59A21.1,21.1,0,0,1,58,389.05a7.3,7.3,0,0,1-.83.39l-.26.1-.33.1-.17,0-.24,0a3,3,0,0,1-.57,0,2.93,2.93,0,0,1-.85-.16,3.22,3.22,0,0,1-.5-.23l-.28-.18a3.57,3.57,0,0,1-.46-.42,3.43,3.43,0,0,1-.42-.58,3.33,3.33,0,0,1-.31-2.32,6,6,0,0,1,.93-2c.32-.46.63-.83.94-1.2.63-.72,1.26-1.35,1.9-2,2.54-2.41,5.15-4.53,7.76-6.68s5.23-4.25,7.72-6.43c1.23-1.08,2.45-2.19,3.49-3.3a9.91,9.91,0,0,0,1.21-1.52c.06-.09.09-.16.08-.16a3.53,3.53,0,0,0,.49.16,3,3,0,0,0,.4.12,2.61,2.61,0,0,0,.67.08c.3,0,.36-.11.24,0l.2-.19h0a.85.85,0,0,0-.06.13s0,.15,0,.26a3,3,0,0,0,0,.35,6,6,0,0,0,.09,1l.06.28h0a1.66,1.66,0,0,0-.28.11c-.24.1-.55.26-.86.43-.63.36-1.29.79-2,1.24-1.33.91-2.67,1.91-4,2.94-2.66,2.05-5.31,4.21-8,6.34-2,1.59-4,3.17-6.18,4.7a38,38,0,0,1-3.45,2.23,12.64,12.64,0,0,1-2.2,1,5.28,5.28,0,0,1-1.93.31,3.66,3.66,0,0,1-1.81-.57,3.35,3.35,0,0,1-.87-.81,3.49,3.49,0,0,1-.49-.9,4.09,4.09,0,0,1-.2-.76l0-.09s0-.19,0-.29a3.67,3.67,0,0,1,0-.66,3.25,3.25,0,0,1,.21-.7,4.18,4.18,0,0,1,.65-1,9.55,9.55,0,0,1,.89-1c.54-.52,1.06-1,1.58-1.39,1-.86,2.06-1.65,3.09-2.44,2.07-1.56,4.15-3.06,6.23-4.55,4.14-3,8.37-5.89,12.34-8.88.49-.37,1-.75,1.38-1.1l.26-.23.17-.18a2.4,2.4,0,0,0,.28-.37l0-.08.21.08.29.1.3.07.24.06.26,0h.2l.19,0,.1,0c.17-.06.09-.06,0,.05a.92.92,0,0,0-.14.3,1.74,1.74,0,0,0-.13.51c0,.15-.07.46-.07.68v.18c0,.07,0,.14,0,.11h0l-.16,0h0l-.07,0-.31.18-.7.46c-.49.33-1,.69-1.49,1.05l-3,2.26Z"/><path class="cls-3" d="M274.36,228.26a13.51,13.51,0,0,0-.92-6.29,16.08,16.08,0,0,0-3.46-5.32,18.1,18.1,0,0,0-11.27-5.2,16.6,16.6,0,0,0-6.27.68,17.28,17.28,0,0,0-5.63,2.84,14.91,14.91,0,0,0-4.11,4.85,15.44,15.44,0,0,0-1.7,6.11,16.81,16.81,0,0,0,3.72,11.84,15.72,15.72,0,0,0,4.91,4,17,17,0,0,0,6.05,1.8,17.82,17.82,0,0,0,6.29-.4,16,16,0,0,0,5.69-2.77,17.18,17.18,0,0,0,6.5-10.57c.22-1.18-1.69-1.34-1.85-.34a15.34,15.34,0,0,1-5.78,9.41,14.19,14.19,0,0,1-5,2.45,15.57,15.57,0,0,1-5.62.34,14.26,14.26,0,0,1-9.71-5.11,15,15,0,0,1-3.29-10.51,13.56,13.56,0,0,1,1.49-5.38,12.83,12.83,0,0,1,3.59-4.23,15.76,15.76,0,0,1,10.6-3.14A16.22,16.22,0,0,1,268.64,218a12.89,12.89,0,0,1,3.84,10.13C272.43,228.9,274.3,229.22,274.36,228.26Z"/><path class="cls-3" d="M281.44,178.52a13.44,13.44,0,0,0-.92-6.3,16,16,0,0,0-3.46-5.31,18.08,18.08,0,0,0-11.26-5.21,16.76,16.76,0,0,0-6.27.69,17.4,17.4,0,0,0-5.64,2.83,14.89,14.89,0,0,0-4.1,4.86,15.57,15.57,0,0,0-1.71,6.11A16.87,16.87,0,0,0,251.8,188a16,16,0,0,0,4.91,4,16.83,16.83,0,0,0,6.06,1.79,17.58,17.58,0,0,0,6.29-.39,16.12,16.12,0,0,0,5.69-2.77,17.25,17.25,0,0,0,6.5-10.58c.21-1.17-1.69-1.34-1.85-.34a15.35,15.35,0,0,1-5.79,9.42,14.38,14.38,0,0,1-5,2.44A15.59,15.59,0,0,1,263,192a14.26,14.26,0,0,1-9.71-5.11,15,15,0,0,1-3.3-10.52,13.57,13.57,0,0,1,1.5-5.37,13.06,13.06,0,0,1,3.58-4.24,15.84,15.84,0,0,1,10.61-3.13,16.17,16.17,0,0,1,10.07,4.66,12.83,12.83,0,0,1,3.84,10.13C279.52,179.16,281.39,179.47,281.44,178.52Z"/><path class="cls-4" d="M353.58,184.62l11.35.43,1.89-8.14.41-1.8,0-.24,0-.11s-.06,0-.09,0l-2.9-.09-27.89-1.11c-4.12-.16-8.27-.26-12.36-.34-5.27-.1-10.55-.09-15.8-.47-3.28-.24.88-2.18,6.95-2,10.75.27,21.5.66,32.33,1.26,3.24.18,6.55.29,9.87.39l10.3.31,1.48,0a2.9,2.9,0,0,1,.69.05l-.16.73-.59,2.58-.79,3.47-1.75,7.65-8.34-.29-13.46-.47c-6.79-.22-13.61-.47-20.36-.63-5.24-.12-10.38-.11-15.56-.16h-1.71l-2.18,0-1.77,0c.16-.7.3-1.34.43-1.94s.23-.94.32-1.35c.16-.59.3-1.07.44-1.47a4.16,4.16,0,0,1,.9-1.6,3.49,3.49,0,0,1,.51-.51c.26-.15.39.22.38,1a13.54,13.54,0,0,1-.11,1.49c0,.3-.08.62-.13,1l-.16,1,0,.42.44,0h4.9l6.78.07c4.55.08,9.17.19,13.79.31l21.9.68Z"/><path class="cls-4" d="M343.87,239.27l11.35.44,1.89-8.14.41-1.8.05-.24,0-.11s-.06,0-.08,0l-2.9-.09-27.89-1.12c-4.13-.15-8.28-.25-12.37-.33-5.26-.1-10.54-.1-15.8-.47-3.28-.24.88-2.18,6.95-2,10.75.26,21.5.66,32.34,1.26,3.23.18,6.54.29,9.87.39l10.29.31,1.48,0a2.81,2.81,0,0,1,.69.06l-.16.73-.58,2.58-.8,3.47-1.75,7.65-8.34-.29-13.45-.47c-6.8-.22-13.62-.48-20.36-.63-5.24-.12-10.39-.11-15.57-.16h-1.7l-2.18,0-1.78,0c.16-.7.3-1.35.44-1.94s.22-.94.32-1.35a14.3,14.3,0,0,1,.44-1.47,4,4,0,0,1,.9-1.6,3.06,3.06,0,0,1,.51-.51c.25-.15.38.22.37,1a13.54,13.54,0,0,1-.11,1.49l-.13,1-.15,1,0,.42.43,0h4.9l6.78.07c4.56.07,9.17.19,13.8.31l21.9.68Z"/><path class="cls-4" d="M269.11,174.92c0,5.9-8.22,5.35-8.22-.58a4.58,4.58,0,0,1,4.58-4.58C268,169.76,269.1,172.39,269.11,174.92Z"/><path class="cls-3" d="M269.85,174.72a7.54,7.54,0,0,0-.93-3.65,4.32,4.32,0,0,0-1.4-1.49,3.89,3.89,0,0,0-2-.57,5.35,5.35,0,0,0-5.34,4.9,6,6,0,0,0,1,3.74,5.06,5.06,0,0,0,3.29,2.08,4.68,4.68,0,0,0,3.83-1,4.76,4.76,0,0,0,1.59-3.58c0-.37-1.49-.32-1.51-.07a3.19,3.19,0,0,1-1.06,2.5,3.15,3.15,0,0,1-2.59.63,3.57,3.57,0,0,1-2.32-1.46,4.62,4.62,0,0,1-.7-2.76,3.86,3.86,0,0,1,1.23-2.5,3.79,3.79,0,0,1,2.6-1,2.38,2.38,0,0,1,2.13,1.32,6,6,0,0,1,.73,2.91C268.35,175,269.86,175,269.85,174.72Z"/><path class="cls-4" d="M270,186c.42-2.29-1.86-7.14-5.66-7.28-4.3-.17-6.22,7.11-6.22,7.11S269.79,187.32,270,186Z"/><path class="cls-3" d="M269.57,185.76c-.05-.06-.07-.14-.11-.19h0l-.09,0a1.26,1.26,0,0,1-.26.06,6.08,6.08,0,0,1-.65.08c-.46,0-.94,0-1.42,0-1,0-1.93-.07-2.91-.13s-1.95-.16-2.92-.26l-2-.22.1-.28q.21-.57.45-1.11a13.24,13.24,0,0,1,1.14-2.06,4.41,4.41,0,0,1,3.42-2.26c2.81,0,5.13,3.45,5.06,6.18,0,.24,1.45.63,1.5.14a6.51,6.51,0,0,0-.45-2.78,9.19,9.19,0,0,0-1.3-2.38,6.23,6.23,0,0,0-4.8-2.67,4.74,4.74,0,0,0-2.77.92,7.58,7.58,0,0,0-1.89,2,15,15,0,0,0-1.29,2.3c-.17.4-.34.8-.49,1.21l-.11.31c-.07.2-.13.4-.19.59l-.33,1.17,2.36.29,1.48.16c1,.1,2,.19,3,.26s2,.12,3,.13c.5,0,1,0,1.54,0a8,8,0,0,0,.81-.09,2.33,2.33,0,0,0,1-.42.3.3,0,0,0,.13-.22.38.38,0,0,0,0-.28A.6.6,0,0,0,270,186l-.25,0h0s0,0,0,0A.5.5,0,0,1,269.57,185.76Z"/><path class="cls-3" d="M262.31,234.19c.17-1.1.26-2.11.35-3.17l.1-1.58c0-.56,0-.9,0-2l-.22-.56,0-.07c-.29.27-.08.07-.15.13h0l0,0-.08-.11-.19-.22a1.67,1.67,0,0,0-.69-.13l-.56,0-1.53-.06c-1,0-2,0-3.05,0-.51,0-1,0-1.55,0l-.8.06-.21,0a2.53,2.53,0,0,0-.36.07,1.85,1.85,0,0,0-.67.24,1.79,1.79,0,0,0-.59,1.24c-.05.34-.06.57-.08.85,0,.53,0,1,0,1.57,0,1,0,2,.14,3.1,0,.15,0,.23,0,.44a2.32,2.32,0,0,0,.18.71,1.29,1.29,0,0,0,1.09.77c.29.06.4.07.53.09l.4.05.78.08c1,.08,2.05.12,3.09.11.52,0,1,0,1.58-.06.27,0,.54,0,.83-.1a3.14,3.14,0,0,0,1-.32.54.54,0,0,0,.21-.25.67.67,0,0,0,0-.35.61.61,0,0,0-.53-.4l-.19-.05,0,0s-.07,0-.12-.11a.44.44,0,0,1-.08-.11l-.13-.2a.93.93,0,0,1-.07-.13h0l-.1,0-.28.06-.67.08c-.46,0-.95.05-1.43.05-1,0-2,0-2.93-.11l-.72-.07-.56-.07,0-.31c-.09-.95-.13-1.94-.13-2.92,0-.48,0-1,0-1.44a5.76,5.76,0,0,1,.06-.66s0,0,0,0l.17,0,.7-.05c.48,0,1,0,1.46,0,1,0,2,0,3,0l1.68.08,0,1.08-.1,1.52c-.08,1-.18,2.05-.33,3C260.42,234,262.24,234.58,262.31,234.19Z"/><path class="cls-3" d="M262.72,227.25a13,13,0,0,0-.85-3.9,6.1,6.1,0,0,0-1.14-1.85,4.52,4.52,0,0,0-.87-.76c-.31-.2-.64-.36-1-.54a4.27,4.27,0,0,0-2.36-.29,4.32,4.32,0,0,0-2.09,1.05,9,9,0,0,0-2.24,3.49c-.09.2,1.74.76,1.77.65a7.2,7.2,0,0,1,1.72-2.73,2.19,2.19,0,0,1,2.45-.44c1.88.71,2.5,3.17,2.69,5.47A4.42,4.42,0,0,0,262.72,227.25Z"/><path class="cls-3" d="M258.31,230.15V228s-1.89,0-1.88,0v2.19S258.32,230.17,258.31,230.15Z"/><path class="cls-3" d="M238.48,330.75l-8,3.18-1,.4a1.2,1.2,0,0,0-.68.68,1.23,1.23,0,0,0,0,1,1.18,1.18,0,0,0,.72.66,1.27,1.27,0,0,0,.44.06h23.38a3.3,3.3,0,0,0,.66,0,3.68,3.68,0,0,0,.61-.25l.49-.22,2-.91,4-1.8,1-.45.5-.23a1.25,1.25,0,0,0,.63-.55,1,1,0,0,0-.64-1.47,2.27,2.27,0,0,0-.25-.06h-1l-4.32,0-17.31-.09a.57.57,0,1,0,0,1.13l17.08.08,4.27,0H262l-1.59.72-3.85,1.74-1.92.87-.48.22-.38.17H231.34c-.66,0-1.71,0-1.48-.06,0-.08,0-.1.06-.13l1-.4,8-3.19C239.17,331.75,239.42,330.52,238.48,330.75Z"/><path class="cls-4" d="M244.8,311.14c2.53-.22,5.14-.05,7.68-.07l-.17-.62a25,25,0,0,1-3.09,1.48c-.7.3.19.05-.11.06a8.88,8.88,0,0,1-.89,0c-2.13,0-4.27-.06-6.4.08l.33.62c1-.53,2-1.19,3-1.63.83-.35.08-.86-.53-.6-1.14.49-2.21,1.2-3.3,1.78-.52.29-.07.65.34.62,2.33-.15,4.79.22,7.1,0a11.72,11.72,0,0,0,4.38-1.9c.35-.23.27-.63-.17-.63-2.65,0-5.37-.15-8,.08C244.3,310.4,243.9,311.21,244.8,311.14Z"/><path class="cls-4" d="M261.82,311.05h7.87l-.13-.51L266.77,312c-.25.13-1.4.9-.48.39.59-.33.18-.08-.42-.12-2.1-.15-4.23-.11-6.34-.17l0,.5,3.13-1.75c.92-.52-.52-.53-.94-.29l-3.13,1.75c-.24.14-.54.49,0,.51,2.32.06,4.7.3,7,.19,1.75-.09,3.42-1.37,4.95-2.16.46-.24.35-.51-.14-.51h-7.87C262,310.32,260.77,311.05,261.82,311.05Z"/><path class="cls-4" d="M278.11,311H286l0-.46L283.24,312c-.22.11-1.48.81-.48.38.73-.3.07-.08-.42-.12-2.1-.15-4.23-.11-6.33-.17l-.05.46,3.13-1.76c.92-.51-.54-.46-.93-.24L275,312.32c-.23.13-.55.44,0,.46,2.32.06,4.71.31,7,.19,1.75-.09,3.42-1.37,4.95-2.17.23-.12.55-.45.05-.45h-7.87C278.78,310.35,277.33,311,278.11,311Z"/><path class="cls-4" d="M294.56,311h7.87l-.14-.5L299.51,312c-.25.12-1.42.88-.48.38.61-.32.17-.07-.42-.12-2.1-.14-4.23-.11-6.34-.17l0,.5,3.13-1.75c.93-.52-.52-.52-.93-.29l-3.14,1.76c-.23.13-.54.48,0,.49,2.33.07,4.71.31,7,.19,1.76-.08,3.42-1.36,5-2.15.46-.24.35-.5-.13-.5h-7.87C294.75,310.33,293.5,311,294.56,311Z"/><path class="cls-4" d="M311.43,311h7.87l-.14-.51L316.37,312c-.21.12-1.32.55-.63.41s-.41-.09-.58-.1c-2.11-.15-4.23-.12-6.34-.17l.14.5,3.13-1.75c.76-.43-.4-.55-.8-.33l-3.13,1.75c-.38.21-.27.5.14.51,2.29.06,4.66.33,6.95.19,1.64-.11,3.26-1.37,4.71-2.12.38-.2.27-.51-.14-.51H312C311.5,310.34,310.56,311,311.43,311Z"/><path class="cls-4" d="M328.46,311h6.21a8.07,8.07,0,0,0,1.39,0c.38-.08.43-.31-.06-.21a9.53,9.53,0,0,0-3.08,1.6c-.45.42.92.08.4-.08a6.47,6.47,0,0,0-1.46,0l-3.93-.1a10.78,10.78,0,0,0-1.27,0c-.45,0-.18.24.22.08a21.9,21.9,0,0,0,2.71-1.51c.66-.37-.93-.19-1.22,0l-3.13,1.76c-.26.14-.21.31.09.32,2.32.07,4.71.33,7,.19,1.75-.1,3.42-1.37,4.94-2.16.23-.12.56-.41.07-.41H329.5C329.17,310.37,327.7,311,328.46,311Z"/><path class="cls-4" d="M346.65,311.08h7.87l0-.7-2.79,1.45c-.17.09-1.22.58-.71.44s-.47,0-.66-.06c-2.1-.1-4.22-.11-6.33-.17l.16.62,3.14-1.76c.76-.42-.37-.69-.83-.44l-3.13,1.76c-.38.21-.25.6.17.62,2.26.06,4.58.27,6.84.18,1.66-.06,3.22-1.29,4.67-2,.36-.19.58-.69,0-.69h-7.87C346.61,310.29,345.77,311.08,346.65,311.08Z"/><path class="cls-4" d="M232.86,321.37h7.87v-.68l-2.79,1.44c-.17.09-1.22.58-.71.45s-.47-.05-.66-.06c-2.1-.11-4.22-.12-6.33-.18l.16.61,3.13-1.75c.77-.43-.37-.69-.82-.43l-3.13,1.75c-.38.22-.25.59.16.61,2.27.06,4.58.27,6.85.18,1.65-.06,3.21-1.29,4.66-2,.36-.18.59-.68,0-.68h-7.87C232.84,320.59,232,321.37,232.86,321.37Z"/><path class="cls-4" d="M250.07,321.36h7.87l-.14-.54L255,322.27c-.26.13-1.41.55-.57.38s-.29-.1-.5-.12c-2.1-.16-4.24-.11-6.34-.17l.14.54,3.14-1.76c.92-.52-.52-.56-.95-.32l-3.13,1.75c-.46.26-.35.53.14.54,2.29.06,4.66.32,6.95.19,1.7-.09,3.37-1.39,4.85-2.16.47-.24.35-.54-.14-.54h-7.87C250.23,320.6,249,321.36,250.07,321.36Z"/><path class="cls-4" d="M266.63,321.39h7.86l0-.72-2.79,1.44c-.17.09-1.22.58-.71.45s-.46-.05-.66-.06c-2.1-.11-4.22-.12-6.33-.18l.17.65,3.13-1.75c.77-.43-.35-.74-.83-.47l-3.13,1.75c-.39.22-.25.63.17.65,2.27.06,4.58.27,6.85.18,1.65-.06,3.22-1.28,4.67-2,.36-.2.58-.73,0-.73h-7.87C266.57,320.57,265.75,321.39,266.63,321.39Z"/><path class="cls-4" d="M282.9,321.41h7.87l0-.76-2.79,1.44c-.16.09-1.22.58-.71.45s-.46-.05-.65-.06c-2.11-.11-4.23-.12-6.34-.17l0,.76,3.13-1.76c.78-.43.07-1-.55-.66l-3.13,1.75c-.36.21-.57.75,0,.76,2.27.06,4.58.27,6.84.19,1.66-.06,3.22-1.28,4.67-2,.37-.19.57-.76,0-.76h-7.86C282.81,320.55,282,321.41,282.9,321.41Z"/><path class="cls-4" d="M299.61,321.37h7.87l-.16-.57-2.78,1.45c-.26.13-1.41.55-.57.38s-.3-.1-.51-.12c-2.1-.15-4.23-.11-6.33-.17l.15.57,3.13-1.75c.93-.52-.5-.61-1-.36l-3.14,1.76c-.46.25-.34.56.16.57,2.29.06,4.66.31,6.95.19,1.7-.09,3.36-1.39,4.85-2.16.47-.24.34-.57-.15-.57h-7.87C299.73,320.59,298.54,321.37,299.61,321.37Z"/><path class="cls-4" d="M316.71,321.32h7.87l.05-.46-2.79,1.44c-.22.12-1.48.82-.48.39.72-.31.08-.09-.42-.12-2.1-.15-4.23-.12-6.33-.17l-.05.46,3.13-1.76c.92-.51-.54-.46-.93-.24l-3.13,1.75c-.24.13-.55.45-.05.46,2.32.07,4.71.32,7,.2,1.75-.1,3.42-1.37,4.95-2.17.23-.12.54-.46.05-.46h-7.87C317.38,320.64,315.93,321.32,316.71,321.32Z"/><path class="cls-4" d="M334.62,321.3h6.21a7.17,7.17,0,0,0,1.39,0c.42-.09.39-.28-.06-.22a9.12,9.12,0,0,0-3.09,1.6c-.44.42.93.08.4-.08a6.45,6.45,0,0,0-1.46,0l-3.92-.11a6.85,6.85,0,0,0-1.28,0c-.45.09-.16.24.23.1a21.28,21.28,0,0,0,2.71-1.52c.66-.37-.92-.21-1.22,0l-3.13,1.75c-.27.15-.21.34.09.35,2.32.06,4.71.32,7,.19,1.75-.1,3.42-1.37,4.94-2.17.24-.12.56-.42.06-.42h-7.86C335.32,320.66,333.85,321.3,334.62,321.3Z"/><path class="cls-4" d="M302.29,230.85c-3.8,7,7.33,2.91.58,0-1,.71-.89,1.32-1.06,2.44"/><path class="cls-4" d="M311.19,230.85c-3.8,7,7.33,2.91.58,0-1,.71-.89,1.32-1.06,2.44"/><path class="cls-4" d="M319.85,230.85c-3.8,7,7.33,2.91.58,0-1,.71-.89,1.32-1.06,2.44"/><path class="cls-4" d="M328,231.37c-3.8,7,7.33,2.91.58,0-1,.71-.89,1.32-1.06,2.44"/><path class="cls-4" d="M311.43,176.54c-3.8,7,7.33,2.91.58,0-1,.71-.9,1.32-1.07,2.44"/><path class="cls-4" d="M320.08,177.06c-3.8,7,7.33,2.91.58,0-1,.7-.89,1.32-1.06,2.44"/><path class="cls-4" d="M328.27,177.06c-3.79,7,7.34,2.91.58,0-1,.7-.89,1.32-1.06,2.44"/><path class="cls-4" d="M452.61,291.69c3.83.35,7.66.63,11.49.81,1.4.07,2.79.06,4.19.14,4.92.28,9.84.58,14.77.79,2.18.09,4.38.13,6.55.19,2.78.05,5.58.13,8.36.29.87,0,.75.11,0,.23s-2.09.32-3.7.43c-5.69.32-11.37.59-17.1.5-3.43-.07-7,.11-10.51.15l-11.57,0c-2.38,0-4.75,0-7.13,0-3.59-.05-7.2-.26-10.77-.34-2.78-.07-5.5,0-8.24-.19-.6,0-1.19-.07-1.8-.13a16.44,16.44,0,0,1-3.46-.62l-.32-.09a9.59,9.59,0,0,1,2.36-.51A116,116,0,0,1,441,291.41a88,88,0,0,1,11.59.19Z"/><path class="cls-4" d="M108.37,297.12c-2.67-.33-5.35-.59-8-.75-1-.07-1.95-.05-2.93-.13-3.44-.26-6.88-.54-10.31-.72-1.53-.08-3.06-.12-4.58-.16-1.94,0-3.9-.11-5.84-.25-.61-.05-.53-.12,0-.23a21,21,0,0,1,2.57-.45,116.17,116.17,0,0,1,12-.57c2.39,0,4.89-.15,7.34-.2l8.08-.07c1.66,0,3.31,0,5,0,2.51,0,5,.22,7.53.29,1.94.05,3.83,0,5.75.15.42,0,.83.06,1.26.13a8.17,8.17,0,0,1,2.42.6l.22.08c.15.05-.49.21-1.64.52-1.71.43-3.47.9-5.25,1.25a49.21,49.21,0,0,1-5.41.75,42.91,42.91,0,0,1-8.09-.14Z"/></g></svg>